<svg xmlns="http://www.w3.org/2000/svg" width="100" height="110" viewBox="0 0 100 110" fill="none">
<g opacity="0.2">
<path fill-rule="evenodd" clip-rule="evenodd" d="M39.3313 21.3594C45.9318 17.5485 54.064 17.5485 60.6646 21.3594L69.4681 26.4421C76.0686 30.2529 80.1348 37.2956 80.1348 44.9173V55.0827C80.1348 62.7044 76.0686 69.7471 69.4681 73.5579L60.6646 78.6406C54.064 82.4514 45.9318 82.4514 39.3313 78.6406L30.5278 73.5579C23.9272 69.7471 19.8611 62.7044 19.8611 55.0827L19.8611 44.9173C19.8611 37.2956 23.9272 30.2529 30.5278 26.4421L39.3313 21.3594Z" fill="#A4053A" fill-opacity="0.2" style="mix-blend-mode:multiply"/>
</g>
<g filter="url(#filter0_d_208_4255)">
<path fill-rule="evenodd" clip-rule="evenodd" d="M30.5555 45.8335H52.7778V84.5249C52.7778 87.1681 49.9962 88.8872 47.6321 87.7051L41.6667 84.7224L35.7012 87.7051C33.3371 88.8872 30.5555 87.1681 30.5555 84.5249V45.8335Z" fill="#7F45F6"/>
</g>
<g filter="url(#filter1_d_208_4255)">
<path fill-rule="evenodd" clip-rule="evenodd" d="M47.2223 45.8335H69.4445V84.5249C69.4445 87.1681 66.663 88.8872 64.2989 87.7051L58.3334 84.7224L52.3679 87.7051C50.0038 88.8872 47.2223 87.1681 47.2223 84.5249V45.8335Z" fill="#7F45F6"/>
</g>
<g filter="url(#filter2_d_208_4255)">
<path fill-rule="evenodd" clip-rule="evenodd" d="M38.8889 52.7778H61.1111V91.4693C61.1111 94.1124 58.3296 95.8315 55.9655 94.6495L50 91.6667L44.0346 94.6495C41.6705 95.8315 38.8889 94.1124 38.8889 91.4693V52.7778Z" fill="white"/>
</g>
<mask id="mask0_208_4255" style="mask-type:luminance" maskUnits="userSpaceOnUse" x="38" y="52" width="24" height="44">
<path fill-rule="evenodd" clip-rule="evenodd" d="M38.8889 52.7778H61.1111V91.4693C61.1111 94.1124 58.3296 95.8315 55.9655 94.6495L50 91.6667L44.0346 94.6495C41.6705 95.8315 38.8889 94.1124 38.8889 91.4693V52.7778Z" fill="white"/>
</mask>
<g mask="url(#mask0_208_4255)">
<rect x="44.4446" y="52.7778" width="11.1111" height="44.4444" fill="#F55462"/>
</g>
<path style="mix-blend-mode:multiply" opacity="0.8" fill-rule="evenodd" clip-rule="evenodd" d="M42.8889 24.939C47.2893 22.3985 52.7108 22.3985 57.1111 24.939L70.5536 32.7C74.954 35.2406 77.6647 39.9357 77.6647 45.0168V60.5389C77.6647 65.62 74.954 70.3151 70.5536 72.8557L57.1111 80.6167C52.7108 83.1573 47.2893 83.1573 42.8889 80.6167L29.4464 72.8557C25.0461 70.3151 22.3353 65.62 22.3353 60.5389L22.3353 45.0168C22.3353 39.9357 25.0461 35.2406 29.4464 32.7L42.8889 24.939Z" fill="#A4053A" fill-opacity="0.2"/>
<path fill-rule="evenodd" clip-rule="evenodd" d="M26.3889 34.028L19.4444 31.2503V29.8614L15.372 28.1646C13.693 27.465 11.9648 29.0528 12.52 30.7849L19.2303 51.721C19.5824 52.8195 20.4455 53.679 21.5455 54.0263L26.3889 55.5558V34.028Z" fill="url(#paint0_linear_208_4255)" stroke="url(#paint1_linear_208_4255)" stroke-width="3.55556" stroke-linecap="round" stroke-linejoin="round"/>
<mask id="mask1_208_4255" style="mask-type:luminance" maskUnits="userSpaceOnUse" x="11" y="27" width="18" height="29">
<path fill-rule="evenodd" clip-rule="evenodd" d="M26.3889 37.7677C26.3889 35.5091 25.0137 33.478 22.9166 32.6392L20.0942 31.5102C19.7017 31.3532 19.4444 30.9731 19.4444 30.5505C19.4444 30.1332 19.1935 29.7568 18.8083 29.5963L17.4816 29.0436C14.9713 27.9976 12.3875 30.3715 13.2175 32.9613L19.2112 51.6614C19.5752 52.7973 20.4677 53.686 21.6052 54.0452C23.9748 54.7935 26.3889 53.0242 26.3889 50.5393V37.7677Z" fill="white" stroke="white" stroke-width="3.55556"/>
</mask>
<g mask="url(#mask1_208_4255)">
<g style="mix-blend-mode:multiply" opacity="0.6" filter="url(#filter3_i_208_4255)">
<path d="M26.6468 41.7166C27.0029 41.859 27.1761 42.2632 27.0337 42.6193C26.8912 42.9754 26.4871 43.1486 26.131 43.0061L19.1866 40.2283C18.9229 40.1229 18.75 39.8675 18.75 39.5836V38.6576L10.844 35.3635C10.49 35.216 10.3226 34.8094 10.4701 34.4554C10.6176 34.1013 11.0242 33.9339 11.3782 34.0814L19.7116 37.5537C19.9703 37.6615 20.1389 37.9143 20.1389 38.1947V39.1134L26.6468 41.7166Z" fill="#FABC10"/>
</g>
<g style="mix-blend-mode:multiply" opacity="0.6" filter="url(#filter4_i_208_4255)">
<path d="M28.0357 50.0496C28.3918 50.192 28.565 50.5962 28.4226 50.9523C28.2802 51.3084 27.876 51.4816 27.5199 51.3391L20.5755 48.5614C20.3118 48.4559 20.1389 48.2005 20.1389 47.9166V46.9907L12.233 43.6965C11.8789 43.549 11.7115 43.1424 11.859 42.7884C12.0065 42.4343 12.4131 42.2669 12.7671 42.4144L21.1005 45.8867C21.3593 45.9945 21.5278 46.2473 21.5278 46.5277V47.4464L28.0357 50.0496Z" fill="#FABC10"/>
</g>
<g opacity="0.2">
<path fill-rule="evenodd" clip-rule="evenodd" d="M39.3313 21.3594C45.9318 17.5485 54.064 17.5485 60.6646 21.3594L69.4681 26.4421C76.0686 30.2529 80.1348 37.2956 80.1348 44.9173V55.0827C80.1348 62.7044 76.0686 69.7471 69.4681 73.5579L60.6646 78.6406C54.064 82.4514 45.9318 82.4514 39.3313 78.6406L30.5278 73.5579C23.9272 69.7471 19.8611 62.7044 19.8611 55.0827L19.8611 44.9173C19.8611 37.2956 23.9272 30.2529 30.5278 26.4421L39.3313 21.3594Z" fill="#A4053A" fill-opacity="0.2" style="mix-blend-mode:multiply"/>
</g>
</g>
<path fill-rule="evenodd" clip-rule="evenodd" d="M73.6111 34.028L80.5556 31.2503V29.8614L84.628 28.1646C86.307 27.465 88.0352 29.0528 87.48 30.7849L80.7697 51.721C80.4176 52.8195 79.5545 53.679 78.4545 54.0263L73.6111 55.5558V34.028Z" fill="url(#paint2_linear_208_4255)" stroke="url(#paint3_linear_208_4255)" stroke-width="3.55556" stroke-linecap="round" stroke-linejoin="round"/>
<mask id="mask2_208_4255" style="mask-type:luminance" maskUnits="userSpaceOnUse" x="71" y="27" width="18" height="29">
<path fill-rule="evenodd" clip-rule="evenodd" d="M73.6111 37.7677C73.6111 35.5091 74.9863 33.478 77.0834 32.6392L79.9058 31.5102C80.2983 31.3532 80.5556 30.9731 80.5556 30.5505C80.5556 30.1332 80.8065 29.7568 81.1917 29.5963L82.5184 29.0436C85.0287 27.9976 87.6125 30.3715 86.7825 32.9613L80.7888 51.6614C80.4248 52.7973 79.5323 53.686 78.3948 54.0452C76.0252 54.7935 73.6111 53.0242 73.6111 50.5393V37.7677Z" fill="white" stroke="white" stroke-width="3.55556"/>
</mask>
<g mask="url(#mask2_208_4255)">
<g style="mix-blend-mode:multiply" opacity="0.6" filter="url(#filter5_i_208_4255)">
<path d="M73.3533 41.7166C72.9972 41.859 72.824 42.2632 72.9664 42.6193C73.1089 42.9754 73.513 43.1486 73.8691 43.0061L80.8136 40.2283C81.0772 40.1229 81.2501 39.8675 81.2501 39.5836V38.6576L89.1561 35.3635C89.5101 35.216 89.6775 34.8094 89.53 34.4554C89.3825 34.1013 88.9759 33.9339 88.6219 34.0814L80.2886 37.5537C80.0298 37.6615 79.8612 37.9143 79.8612 38.1947V39.1134L73.3533 41.7166Z" fill="#FABC10"/>
</g>
<g style="mix-blend-mode:multiply" opacity="0.6" filter="url(#filter6_i_208_4255)">
<path d="M71.9644 50.0496C71.6083 50.192 71.4351 50.5962 71.5775 50.9523C71.72 51.3084 72.1241 51.4816 72.4802 51.3391L79.4247 48.5614C79.6883 48.4559 79.8612 48.2005 79.8612 47.9166V46.9907L87.7672 43.6965C88.1212 43.549 88.2886 43.1424 88.1411 42.7884C87.9936 42.4343 87.587 42.2669 87.233 42.4144L78.8996 45.8867C78.6409 45.9945 78.4723 46.2473 78.4723 46.5277V47.4464L71.9644 50.0496Z" fill="#FABC10"/>
</g>
<g opacity="0.2">
<path fill-rule="evenodd" clip-rule="evenodd" d="M60.6687 21.3594C54.0682 17.5485 45.936 17.5485 39.3354 21.3594L30.5319 26.4421C23.9314 30.2529 19.8652 37.2956 19.8652 44.9173V55.0827C19.8652 62.7044 23.9314 69.7471 30.5319 73.5579L39.3354 78.6406C45.936 82.4514 54.0682 82.4514 60.6687 78.6406L69.4722 73.5579C76.0728 69.7471 80.1389 62.7044 80.1389 55.0827L80.1389 44.9173C80.1389 37.2956 76.0728 30.2529 69.4722 26.4421L60.6687 21.3594Z" fill="#A4053A" fill-opacity="0.2" style="mix-blend-mode:multiply"/>
</g>
</g>
<path fill-rule="evenodd" clip-rule="evenodd" d="M25 58.333L21.1297 60.2682C20.0756 60.7952 19.3512 61.8103 19.1954 62.9784L18.6253 67.2545C18.3919 69.0051 20.265 70.2649 21.7983 69.3887L27.7778 65.9719L25 58.333Z" fill="url(#paint4_linear_208_4255)" stroke="url(#paint5_linear_208_4255)" stroke-width="3.55556" stroke-linecap="round" stroke-linejoin="round"/>
<mask id="mask3_208_4255" style="mask-type:luminance" maskUnits="userSpaceOnUse" x="17" y="58" width="12" height="12">
<path fill-rule="evenodd" clip-rule="evenodd" d="M26.4417 62.2978C25.6737 60.1858 23.2367 59.2147 21.2266 60.2197C20.1119 60.7771 19.3458 61.8505 19.1811 63.0858L19.0999 63.6945C18.6721 66.9035 22.1058 69.213 24.9166 67.6069C26.5697 66.6622 27.3023 64.6643 26.6516 62.8749L26.4417 62.2978Z" fill="white" stroke="white" stroke-width="3.55556"/>
</mask>
<g mask="url(#mask3_208_4255)">
<g opacity="0.1">
<path fill-rule="evenodd" clip-rule="evenodd" d="M39.0278 21.3589C45.6283 17.548 53.7606 17.548 60.3611 21.3589L69.1646 26.4416C75.7652 30.2524 79.8313 37.2951 79.8313 44.9168V55.0822C79.8313 62.7039 75.7652 69.7466 69.1646 73.5574L60.3611 78.6401C53.7606 82.4509 45.6283 82.4509 39.0278 78.6401L30.2243 73.5574C23.6237 69.7466 19.5576 62.7039 19.5576 55.0822L19.5576 44.9168C19.5576 37.2951 23.6237 30.2524 30.2243 26.4416L39.0278 21.3589Z" fill="#F37E02" style="mix-blend-mode:multiply"/>
</g>
</g>
<path fill-rule="evenodd" clip-rule="evenodd" d="M75 58.333L78.8703 60.2682C79.9244 60.7952 80.6488 61.8103 80.8046 62.9784L81.3747 67.2545C81.6081 69.0051 79.735 70.2649 78.2017 69.3887L72.2222 65.9719L75 58.333Z" fill="url(#paint6_linear_208_4255)" stroke="url(#paint7_linear_208_4255)" stroke-width="3.55556" stroke-linecap="round" stroke-linejoin="round"/>
<mask id="mask4_208_4255" style="mask-type:luminance" maskUnits="userSpaceOnUse" x="70" y="56" width="14" height="16">
<path fill-rule="evenodd" clip-rule="evenodd" d="M75 58.333L78.8703 60.2682C79.9244 60.7952 80.6488 61.8103 80.8046 62.9784L81.3747 67.2545C81.6081 69.0051 79.735 70.2649 78.2017 69.3887L72.2222 65.9719L75 58.333Z" fill="white" stroke="white" stroke-width="3.55556" stroke-linecap="round" stroke-linejoin="round"/>
</mask>
<g mask="url(#mask4_208_4255)">
<g opacity="0.1">
<path fill-rule="evenodd" clip-rule="evenodd" d="M60.9723 21.3589C54.3718 17.548 46.2396 17.548 39.639 21.3589L30.8355 26.4416C24.2349 30.2524 20.1688 37.2951 20.1688 44.9168V55.0822C20.1688 62.7039 24.2349 69.7466 30.8355 73.5574L39.639 78.6401C46.2396 82.4509 54.3718 82.4509 60.9723 78.6401L69.7758 73.5574C76.3764 69.7466 80.4425 62.7039 80.4425 55.0822L80.4425 44.9168C80.4425 37.2951 76.3764 30.2524 69.7758 26.4416L60.9723 21.3589Z" fill="#F37E02" style="mix-blend-mode:multiply"/>
</g>
</g>
<path fill-rule="evenodd" clip-rule="evenodd" d="M41.695 32.0284C41.695 34.681 40.1779 37.0998 37.7899 38.2547C33.1972 40.4757 27.8627 37.1299 27.8627 32.0284V28.5029C27.8627 26.8724 28.7325 25.3658 30.1445 24.5506L36.3617 20.9611C38.7321 19.5926 41.695 21.3033 41.695 24.0403V32.0284Z" fill="url(#paint8_linear_208_4255)"/>
<path opacity="0.4" d="M29.4537 25.7495L39.974 19.6768" stroke="#FDEDAC" stroke-width="3.55556" stroke-linecap="round"/>
<path fill-rule="evenodd" clip-rule="evenodd" d="M58.3051 32.0284C58.3051 34.681 59.8222 37.0998 62.2102 38.2547C66.8029 40.4757 72.1375 37.1299 72.1375 32.0284V28.5029C72.1375 26.8724 71.2676 25.3658 69.8556 24.5506L63.6384 20.9611C61.2681 19.5926 58.3051 21.3033 58.3051 24.0403V32.0284Z" fill="url(#paint9_linear_208_4255)"/>
<path opacity="0.4" d="M70.5464 25.7495L60.0261 19.6768" stroke="#FDEDAC" stroke-width="3.55556" stroke-linecap="round"/>
<path fill-rule="evenodd" clip-rule="evenodd" d="M42.8889 22.1613C47.2892 19.6207 52.7107 19.6207 57.1111 22.1613L70.5536 29.9223C74.954 32.4628 77.6647 37.158 77.6647 42.2391V57.7611C77.6647 62.8422 74.9539 67.5374 70.5536 70.0779L57.1111 77.839C52.7107 80.3795 47.2892 80.3795 42.8889 77.839L29.4464 70.0779C25.046 67.5374 22.3353 62.8422 22.3353 57.7611V42.2391C22.3353 37.158 25.046 32.4628 29.4464 29.9223L42.8889 22.1613Z" fill="url(#paint10_linear_208_4255)" stroke="#FFF04D" stroke-opacity="0.4" stroke-width="3.55556"/>
<mask id="mask5_208_4255" style="mask-type:luminance" maskUnits="userSpaceOnUse" x="22" y="19" width="56" height="62">
<path fill-rule="evenodd" clip-rule="evenodd" d="M46.4444 20.1085C48.6446 18.8382 51.3554 18.8382 53.5555 20.1085L74.1091 31.9751C76.3093 33.2454 77.6647 35.5929 77.6647 38.1335V61.8667C77.6647 64.4073 76.3093 66.7549 74.1091 68.0251L53.5555 79.8918C51.3554 81.162 48.6446 81.162 46.4444 79.8918L25.8908 68.0251C23.6907 66.7549 22.3353 64.4073 22.3353 61.8667V38.1335C22.3353 35.5929 23.6907 33.2454 25.8908 31.9751L46.4444 20.1085Z" fill="white"/>
</mask>
<g mask="url(#mask5_208_4255)">
<g style="mix-blend-mode:multiply" opacity="0.8" filter="url(#filter7_i_208_4255)">
<path d="M47.8938 23.6206C49.1972 22.8672 50.8033 22.8672 52.1067 23.6206L71.7649 34.9839C73.0682 35.7373 73.8713 37.1296 73.8713 38.6362V46.8335L74.6653 48.0269C75.4601 49.2204 75.4601 50.7747 74.6653 51.9683L73.8713 53.1597V61.3638C73.8711 62.8703 73.0681 64.2628 71.7649 65.0161L52.1067 76.3794C50.8034 77.1327 49.1971 77.1327 47.8938 76.3794L28.2346 65.0161C26.9314 64.2628 26.1284 62.8703 26.1282 61.3638V53.1597L25.3342 51.9683C24.5395 50.7748 24.5396 49.2204 25.3342 48.0269L26.1282 46.8335V38.6362C26.1283 37.1296 26.9314 35.7373 28.2346 34.9839L47.8938 23.6206ZM51.4045 24.8384C50.5356 24.3361 49.4649 24.3361 48.5959 24.8384L28.9368 36.2017C28.0681 36.7039 27.5325 37.6319 27.5325 38.6362V46.8335L28.3264 48.0269C29.1212 49.2204 29.1212 50.7747 28.3264 51.9683L27.5325 53.1597V61.3638C27.5327 62.368 28.0681 63.2962 28.9368 63.7983L48.5959 75.1616C49.4648 75.6638 50.5357 75.6638 51.4045 75.1616L71.0637 63.7983C71.9323 63.2961 72.4668 62.3679 72.467 61.3638V53.1597L71.6731 51.9683C70.8784 50.7748 70.8785 49.2204 71.6731 48.0269L72.467 46.8335V38.6362C72.467 37.632 71.9323 36.704 71.0637 36.2017L51.4045 24.8384Z" fill="#FABC10"/>
</g>
<path d="M52.4306 20.2606C50.9266 19.3923 49.0735 19.3923 47.5695 20.2606L25.4603 33.0254C23.9563 33.8937 23.0298 35.4985 23.0298 37.2352L23.0298 62.7646C23.0298 64.5014 23.9563 66.1061 25.4603 66.9745L47.5695 79.7392C49.0735 80.6076 50.9266 80.6076 52.4306 79.7392L74.5397 66.9745C76.0438 66.1061 76.9703 64.5014 76.9703 62.7646V37.2352C76.9703 35.4985 76.0438 33.8937 74.5397 33.0254L52.4306 20.2606Z" stroke="#FAB90A" stroke-width="3.55556"/>
<path opacity="0.4" d="M52.4307 79.739C55.0309 78.2378 56.8733 77.1741 57.9579 76.5479" stroke="white" stroke-width="3.55556" stroke-linecap="round"/>
<path d="M76.9703 62.7647V37.2352C76.9703 35.4985 76.0438 33.8937 74.5397 33.0254L52.4306 20.2606C50.9266 19.3923 49.0735 19.3923 47.5695 20.2606L25.4603 33.0254C23.9563 33.8937 23.0298 35.4985 23.0298 37.2352L23.0298 62.7647" stroke="#FAC81C" stroke-width="3.55556" stroke-linecap="round"/>
<path opacity="0.6" d="M76.9703 37.2352C76.9703 35.4985 76.0438 33.8937 74.5397 33.0254L52.4306 20.2606C50.9266 19.3923 49.0735 19.3923 47.5695 20.2606L25.4603 33.0254C23.9563 33.8937 23.0298 35.4985 23.0298 37.2352" stroke="#FDDB3D" stroke-width="3.55556" stroke-linecap="round"/>
<path opacity="0.6" d="M52.4306 20.2606C50.9265 19.3923 49.0735 19.3923 47.5695 20.2606C47.5695 20.2606 40.1997 24.5155 36.5149 26.643" stroke="white" stroke-width="3.55556" stroke-linecap="round"/>
<path d="M47.5695 20.2607C47.5695 20.2607 43.6692 22.5126 42.0422 23.4519" stroke="white" stroke-width="3.55556" stroke-linecap="round"/>
</g>
<g filter="url(#filter8_d_208_4255)">
<path fill-rule="evenodd" clip-rule="evenodd" d="M46.4445 29.8306C48.6447 28.5604 51.3554 28.5604 53.5556 29.8306L65.6895 36.8361C67.8897 38.1064 69.2451 40.454 69.2451 42.9945V57.0056C69.2451 59.5461 67.8897 61.8937 65.6895 63.164L53.5556 70.1695C51.3554 71.4398 48.6447 71.4398 46.4445 70.1695L34.3106 63.164C32.1104 61.8937 30.755 59.5461 30.755 57.0056V42.9945C30.755 40.454 32.1104 38.1064 34.3106 36.8361L46.4445 29.8306Z" fill="url(#paint11_linear_208_4255)"/>
<path d="M45.5552 28.2915C48.3054 26.7037 51.6946 26.7037 54.4448 28.2915L66.5786 35.2964C69.3288 36.8842 71.0229 39.819 71.0229 42.9946V57.0054C71.0229 60.181 69.3288 63.1157 66.5786 64.7036L54.4448 71.7095C51.6946 73.2973 48.3054 73.2973 45.5552 71.7095L33.4214 64.7036C30.6713 63.1157 28.9771 60.181 28.9771 57.0054V42.9946C28.9771 39.819 30.6713 36.8843 33.4214 35.2964L45.5552 28.2915Z" stroke="#F5900D" stroke-opacity="0.1" stroke-width="3.55556" style="mix-blend-mode:multiply"/>
</g>
<mask id="mask6_208_4255" style="mask-type:luminance" maskUnits="userSpaceOnUse" x="30" y="28" width="40" height="44">
<path fill-rule="evenodd" clip-rule="evenodd" d="M46.4445 29.8306C48.6447 28.5604 51.3554 28.5604 53.5556 29.8306L65.6895 36.8361C67.8897 38.1064 69.2451 40.454 69.2451 42.9945V57.0056C69.2451 59.5461 67.8897 61.8937 65.6895 63.164L53.5556 70.1695C51.3554 71.4398 48.6447 71.4398 46.4445 70.1695L34.3106 63.164C32.1104 61.8937 30.755 59.5461 30.755 57.0056V42.9945C30.755 40.454 32.1104 38.1064 34.3106 36.8361L46.4445 29.8306Z" fill="white"/>
</mask>
<g mask="url(#mask6_208_4255)">
<g style="mix-blend-mode:multiply" opacity="0.3">
<path fill-rule="evenodd" clip-rule="evenodd" d="M50.0001 50.0001L27.7778 55.5556V44.4445L50.0001 50.0001ZM50.0001 50.0001L55.5556 27.7778H44.4445L50.0001 50.0001ZM50.0001 50.0001L72.2223 44.4445V55.5556L50.0001 50.0001ZM50.0001 50.0001L61.7852 30.3582L69.6419 38.2149L50.0001 50.0001ZM50.0001 50.0001L61.7852 69.6419L69.6419 61.7852L50.0001 50.0001ZM50.0001 50.0001L44.4445 72.2223H55.5556L50.0001 50.0001ZM50.0001 50.0001L38.2149 69.6419L30.3582 61.7852L50.0001 50.0001Z" fill="#FFD640"/>
<path d="M38.2149 30.3582L30.3582 38.2149L50.0001 50.0001L38.2149 30.3582Z" fill="#FFD640"/>
</g>
<path opacity="0.4" d="M67.509 38.6888L51.0418 29.1815C50.3972 28.8093 49.603 28.8093 48.9584 29.1815C47.0217 30.2996 45.6495 31.0919 44.8416 31.5583C43.1604 32.529 41.7881 33.3212 40.7248 33.9351C38.8951 34.9915 36.1506 36.5761 32.4912 38.6888" stroke="white" stroke-width="3.55556" stroke-linecap="round"/>
<path d="M48.9584 29.1812C47.0217 30.2993 45.6494 31.0916 44.8416 31.558" stroke="white" stroke-width="3.55556" stroke-linecap="round"/>
<path opacity="0.4" d="M67.5089 61.2643L51.0417 70.7717C50.3971 71.1438 49.603 71.1438 48.9584 70.7717" stroke="white" stroke-width="3.55556" stroke-linecap="round"/>
</g>
<g filter="url(#filter9_d_208_4255)">
<path d="M41.358 42.4407L50 37.2686L58.642 42.4407V57.5594L50 62.7315L41.358 57.5594V42.4407Z" fill="white"/>
<path d="M62.1979 57.5596C62.1978 58.8097 61.541 59.9682 60.4684 60.6104L51.8258 65.7822C50.7016 66.4551 49.2987 66.455 48.1744 65.7822L39.5319 60.6104C38.4591 59.9683 37.8024 58.8098 37.8024 57.5596V42.4404C37.8025 41.1902 38.4591 40.0317 39.5319 39.3896L48.1744 34.2178L48.3883 34.0996C49.4729 33.5477 50.7718 33.587 51.8258 34.2178L60.4684 39.3896C61.541 40.0317 62.1978 41.1903 62.1979 42.4404V57.5596Z" stroke="white" stroke-width="7.11111" stroke-linejoin="round"/>
</g>
<path fill-rule="evenodd" clip-rule="evenodd" d="M41.358 42.4407L50 37.2686V42.8386L46.0718 45.2257L41.358 42.4407Z" fill="url(#paint12_linear_208_4255)"/>
<path fill-rule="evenodd" clip-rule="evenodd" d="M41.358 42.4404V57.5591L46.0718 54.7741V45.2254L41.358 42.4404Z" fill="url(#paint13_linear_208_4255)"/>
<path fill-rule="evenodd" clip-rule="evenodd" d="M50 62.7311L41.358 57.5589L46.0718 54.7739L50 57.1611V62.7311Z" fill="url(#paint14_linear_208_4255)"/>
<path fill-rule="evenodd" clip-rule="evenodd" d="M50 62.7311L58.642 57.5589L53.9282 54.7739L50 57.1611V62.7311Z" fill="url(#paint15_linear_208_4255)"/>
<path fill-rule="evenodd" clip-rule="evenodd" d="M58.642 42.4404V57.5591L53.9282 54.7741V45.2254L58.642 42.4404Z" fill="url(#paint16_linear_208_4255)"/>
<path fill-rule="evenodd" clip-rule="evenodd" d="M58.642 42.4407L50 37.2686V42.8386L53.9282 45.2257L58.642 42.4407Z" fill="url(#paint17_linear_208_4255)"/>
<path fill-rule="evenodd" clip-rule="evenodd" d="M46.0719 54.7741L50.0001 57.1613L53.9282 54.7741V45.2255L50.0001 42.8384L46.0719 45.2255V54.7741Z" fill="url(#paint18_linear_208_4255)"/>
<g filter="url(#filter10_d_208_4255)">
<path fill-rule="evenodd" clip-rule="evenodd" d="M65.1541 41.3607L64.4328 41.0763C63.9916 40.9023 63.775 40.4036 63.949 39.9625C64.0363 39.7412 64.2115 39.566 64.4328 39.4787L65.1541 39.1943C65.9859 38.8662 66.6443 38.2078 66.9723 37.376L67.2568 36.6547C67.4308 36.2135 67.9295 35.997 68.3706 36.1709C68.5919 36.2582 68.7671 36.4334 68.8543 36.6547L69.1388 37.376C69.4669 38.2078 70.1253 38.8662 70.9571 39.1943L71.6784 39.4787C72.1196 39.6527 72.3361 40.1514 72.1621 40.5925C72.0749 40.8138 71.8997 40.989 71.6784 41.0763L70.9571 41.3607C70.1253 41.6888 69.4669 42.3472 69.1388 43.179L68.8543 43.9003C68.6804 44.3415 68.1817 44.5581 67.7406 44.3841C67.5193 44.2968 67.3441 44.1216 67.2568 43.9003L66.9723 43.179C66.6443 42.3472 65.9859 41.6888 65.1541 41.3607Z" fill="white"/>
</g>
<g filter="url(#filter11_d_208_4255)">
<path fill-rule="evenodd" clip-rule="evenodd" d="M34.1768 64.6108L33.6959 64.4211C33.4018 64.3051 33.2575 63.9727 33.3734 63.6786C33.4316 63.5311 33.5484 63.4143 33.6959 63.3561L34.1768 63.1665C34.7313 62.9478 35.1703 62.5088 35.389 61.9543L35.5786 61.4734C35.6946 61.1793 36.0271 61.0349 36.3212 61.1509C36.4687 61.2091 36.5855 61.3259 36.6437 61.4734L36.8333 61.9543C37.052 62.5088 37.491 62.9478 38.0455 63.1665L38.5264 63.3561C38.8205 63.4721 38.9648 63.8045 38.8489 64.0986C38.7907 64.2462 38.6739 64.3629 38.5264 64.4211L38.0455 64.6108C37.491 64.8295 37.052 65.2684 36.8333 65.823L36.6437 66.3038C36.5277 66.5979 36.1952 66.7423 35.9011 66.6263C35.7536 66.5681 35.6368 66.4514 35.5786 66.3038L35.389 65.823C35.1703 65.2684 34.7313 64.8295 34.1768 64.6108Z" fill="white"/>
</g>
<g filter="url(#filter12_d_208_4255)">
<path fill-rule="evenodd" clip-rule="evenodd" d="M28.8321 43.2636L28.231 43.0265C27.8634 42.8815 27.6829 42.466 27.8279 42.0984C27.9007 41.914 28.0466 41.768 28.231 41.6953L28.8321 41.4582C29.5253 41.1848 30.074 40.6361 30.3474 39.943L30.5844 39.3419C30.7294 38.9743 31.145 38.7938 31.5126 38.9388C31.697 39.0115 31.843 39.1575 31.9157 39.3419L32.1528 39.943C32.4261 40.6361 32.9748 41.1848 33.668 41.4582L34.2691 41.6953C34.6367 41.8402 34.8172 42.2558 34.6722 42.6234C34.5995 42.8078 34.4535 42.9538 34.2691 43.0265L33.668 43.2636C32.9748 43.537 32.4261 44.0857 32.1528 44.7788L31.9157 45.3799C31.7707 45.7475 31.3552 45.928 30.9875 45.783C30.8031 45.7103 30.6571 45.5643 30.5844 45.3799L30.3474 44.7788C30.074 44.0857 29.5253 43.537 28.8321 43.2636Z" fill="white"/>
</g>
<g filter="url(#filter13_d_208_4255)">
<path fill-rule="evenodd" clip-rule="evenodd" d="M64.5215 62.3471L64.1608 62.2049C63.9403 62.1179 63.832 61.8686 63.919 61.648C63.9626 61.5373 64.0502 61.4498 64.1608 61.4061L64.5215 61.2639C64.9374 61.0999 65.2666 60.7706 65.4306 60.3547L65.5729 59.9941C65.6599 59.7735 65.9092 59.6652 66.1298 59.7522C66.2404 59.7959 66.328 59.8834 66.3716 59.9941L66.5139 60.3547C66.6779 60.7706 67.0071 61.0999 67.423 61.2639L67.7837 61.4061C68.0042 61.4931 68.1125 61.7424 68.0255 61.963C67.9819 62.0737 67.8943 62.1612 67.7837 62.2049L67.423 62.3471C67.0071 62.5111 66.6779 62.8404 66.5139 63.2563L66.3716 63.6169C66.2846 63.8375 66.0353 63.9458 65.8147 63.8588C65.7041 63.8151 65.6165 63.7276 65.5729 63.6169L65.4306 63.2563C65.2666 62.8404 64.9374 62.5111 64.5215 62.3471Z" fill="white"/>
</g>
<defs>
<filter id="filter0_d_208_4255" x="23.4444" y="45.8335" width="36.4444" height="56.4737" filterUnits="userSpaceOnUse" color-interpolation-filters="sRGB">
<feFlood flood-opacity="0" result="BackgroundImageFix"/>
<feColorMatrix in="SourceAlpha" type="matrix" values="0 0 0 0 0 0 0 0 0 0 0 0 0 0 0 0 0 0 127 0" result="hardAlpha"/>
<feOffset dy="7.11111"/>
<feGaussianBlur stdDeviation="3.55556"/>
<feColorMatrix type="matrix" values="0 0 0 0 0.921569 0 0 0 0 0.215686 0 0 0 0 0.305882 0 0 0 0.2 0"/>
<feBlend mode="darken" in2="BackgroundImageFix" result="effect1_dropShadow_208_4255"/>
<feBlend mode="normal" in="SourceGraphic" in2="effect1_dropShadow_208_4255" result="shape"/>
</filter>
<filter id="filter1_d_208_4255" x="40.1112" y="45.8335" width="36.4444" height="56.4737" filterUnits="userSpaceOnUse" color-interpolation-filters="sRGB">
<feFlood flood-opacity="0" result="BackgroundImageFix"/>
<feColorMatrix in="SourceAlpha" type="matrix" values="0 0 0 0 0 0 0 0 0 0 0 0 0 0 0 0 0 0 127 0" result="hardAlpha"/>
<feOffset dy="7.11111"/>
<feGaussianBlur stdDeviation="3.55556"/>
<feColorMatrix type="matrix" values="0 0 0 0 0.921569 0 0 0 0 0.215686 0 0 0 0 0.305882 0 0 0 0.2 0"/>
<feBlend mode="darken" in2="BackgroundImageFix" result="effect1_dropShadow_208_4255"/>
<feBlend mode="normal" in="SourceGraphic" in2="effect1_dropShadow_208_4255" result="shape"/>
</filter>
<filter id="filter2_d_208_4255" x="31.7778" y="52.7778" width="36.4444" height="56.4737" filterUnits="userSpaceOnUse" color-interpolation-filters="sRGB">
<feFlood flood-opacity="0" result="BackgroundImageFix"/>
<feColorMatrix in="SourceAlpha" type="matrix" values="0 0 0 0 0 0 0 0 0 0 0 0 0 0 0 0 0 0 127 0" result="hardAlpha"/>
<feOffset dy="7.11111"/>
<feGaussianBlur stdDeviation="3.55556"/>
<feColorMatrix type="matrix" values="0 0 0 0 0.921569 0 0 0 0 0.215686 0 0 0 0 0.305882 0 0 0 0.2 0"/>
<feBlend mode="darken" in2="BackgroundImageFix" result="effect1_dropShadow_208_4255"/>
<feBlend mode="normal" in="SourceGraphic" in2="effect1_dropShadow_208_4255" result="shape"/>
</filter>
<filter id="filter3_i_208_4255" x="10.4165" y="34.0278" width="16.667" height="12.5839" filterUnits="userSpaceOnUse" color-interpolation-filters="sRGB">
<feFlood flood-opacity="0" result="BackgroundImageFix"/>
<feBlend mode="normal" in="SourceGraphic" in2="BackgroundImageFix" result="shape"/>
<feColorMatrix in="SourceAlpha" type="matrix" values="0 0 0 0 0 0 0 0 0 0 0 0 0 0 0 0 0 0 127 0" result="hardAlpha"/>
<feOffset dy="3.55556"/>
<feGaussianBlur stdDeviation="1.77778"/>
<feComposite in2="hardAlpha" operator="arithmetic" k2="-1" k3="1"/>
<feColorMatrix type="matrix" values="0 0 0 0 0.976471 0 0 0 0 0.713726 0 0 0 0 0.0352941 0 0 0 1 0"/>
<feBlend mode="normal" in2="shape" result="effect1_innerShadow_208_4255"/>
</filter>
<filter id="filter4_i_208_4255" x="11.8054" y="42.3608" width="16.667" height="12.5839" filterUnits="userSpaceOnUse" color-interpolation-filters="sRGB">
<feFlood flood-opacity="0" result="BackgroundImageFix"/>
<feBlend mode="normal" in="SourceGraphic" in2="BackgroundImageFix" result="shape"/>
<feColorMatrix in="SourceAlpha" type="matrix" values="0 0 0 0 0 0 0 0 0 0 0 0 0 0 0 0 0 0 127 0" result="hardAlpha"/>
<feOffset dy="3.55556"/>
<feGaussianBlur stdDeviation="1.77778"/>
<feComposite in2="hardAlpha" operator="arithmetic" k2="-1" k3="1"/>
<feColorMatrix type="matrix" values="0 0 0 0 0.976471 0 0 0 0 0.713726 0 0 0 0 0.0352941 0 0 0 1 0"/>
<feBlend mode="normal" in2="shape" result="effect1_innerShadow_208_4255"/>
</filter>
<filter id="filter5_i_208_4255" x="72.9166" y="34.0278" width="16.667" height="12.5839" filterUnits="userSpaceOnUse" color-interpolation-filters="sRGB">
<feFlood flood-opacity="0" result="BackgroundImageFix"/>
<feBlend mode="normal" in="SourceGraphic" in2="BackgroundImageFix" result="shape"/>
<feColorMatrix in="SourceAlpha" type="matrix" values="0 0 0 0 0 0 0 0 0 0 0 0 0 0 0 0 0 0 127 0" result="hardAlpha"/>
<feOffset dy="3.55556"/>
<feGaussianBlur stdDeviation="1.77778"/>
<feComposite in2="hardAlpha" operator="arithmetic" k2="-1" k3="1"/>
<feColorMatrix type="matrix" values="0 0 0 0 0.976471 0 0 0 0 0.713726 0 0 0 0 0.0352941 0 0 0 1 0"/>
<feBlend mode="normal" in2="shape" result="effect1_innerShadow_208_4255"/>
</filter>
<filter id="filter6_i_208_4255" x="71.5277" y="42.3608" width="16.667" height="12.5839" filterUnits="userSpaceOnUse" color-interpolation-filters="sRGB">
<feFlood flood-opacity="0" result="BackgroundImageFix"/>
<feBlend mode="normal" in="SourceGraphic" in2="BackgroundImageFix" result="shape"/>
<feColorMatrix in="SourceAlpha" type="matrix" values="0 0 0 0 0 0 0 0 0 0 0 0 0 0 0 0 0 0 127 0" result="hardAlpha"/>
<feOffset dy="3.55556"/>
<feGaussianBlur stdDeviation="1.77778"/>
<feComposite in2="hardAlpha" operator="arithmetic" k2="-1" k3="1"/>
<feColorMatrix type="matrix" values="0 0 0 0 0.976471 0 0 0 0 0.713726 0 0 0 0 0.0352941 0 0 0 1 0"/>
<feBlend mode="normal" in2="shape" result="effect1_innerShadow_208_4255"/>
</filter>
<filter id="filter7_i_208_4255" x="24.7383" y="23.0557" width="50.5231" height="57.4442" filterUnits="userSpaceOnUse" color-interpolation-filters="sRGB">
<feFlood flood-opacity="0" result="BackgroundImageFix"/>
<feBlend mode="normal" in="SourceGraphic" in2="BackgroundImageFix" result="shape"/>
<feColorMatrix in="SourceAlpha" type="matrix" values="0 0 0 0 0 0 0 0 0 0 0 0 0 0 0 0 0 0 127 0" result="hardAlpha"/>
<feOffset dy="3.55556"/>
<feGaussianBlur stdDeviation="1.77778"/>
<feComposite in2="hardAlpha" operator="arithmetic" k2="-1" k3="1"/>
<feColorMatrix type="matrix" values="0 0 0 0 0.976471 0 0 0 0 0.713726 0 0 0 0 0.0352941 0 0 0 1 0"/>
<feBlend mode="normal" in2="shape" result="effect1_innerShadow_208_4255"/>
</filter>
<filter id="filter8_d_208_4255" x="20.0884" y="21.7667" width="59.8234" height="63.5777" filterUnits="userSpaceOnUse" color-interpolation-filters="sRGB">
<feFlood flood-opacity="0" result="BackgroundImageFix"/>
<feColorMatrix in="SourceAlpha" type="matrix" values="0 0 0 0 0 0 0 0 0 0 0 0 0 0 0 0 0 0 127 0" result="hardAlpha"/>
<feOffset dy="3.55556"/>
<feGaussianBlur stdDeviation="3.55556"/>
<feColorMatrix type="matrix" values="0 0 0 0 0.927721 0 0 0 0 0.665867 0 0 0 0 0.0535899 0 0 0 0.4 0"/>
<feBlend mode="normal" in2="BackgroundImageFix" result="effect1_dropShadow_208_4255"/>
<feBlend mode="normal" in="SourceGraphic" in2="effect1_dropShadow_208_4255" result="shape"/>
</filter>
<filter id="filter9_d_208_4255" x="27.1358" y="26.6017" width="45.7283" height="53.9078" filterUnits="userSpaceOnUse" color-interpolation-filters="sRGB">
<feFlood flood-opacity="0" result="BackgroundImageFix"/>
<feColorMatrix in="SourceAlpha" type="matrix" values="0 0 0 0 0 0 0 0 0 0 0 0 0 0 0 0 0 0 127 0" result="hardAlpha"/>
<feOffset dy="3.55556"/>
<feGaussianBlur stdDeviation="3.55556"/>
<feColorMatrix type="matrix" values="0 0 0 0 0.996078 0 0 0 0 0.733333 0 0 0 0 0.105882 0 0 0 1 0"/>
<feBlend mode="normal" in2="BackgroundImageFix" result="effect1_dropShadow_208_4255"/>
<feBlend mode="normal" in="SourceGraphic" in2="effect1_dropShadow_208_4255" result="shape"/>
</filter>
<filter id="filter10_d_208_4255" x="56.7778" y="28.9997" width="22.5556" height="22.5557" filterUnits="userSpaceOnUse" color-interpolation-filters="sRGB">
<feFlood flood-opacity="0" result="BackgroundImageFix"/>
<feColorMatrix in="SourceAlpha" type="matrix" values="0 0 0 0 0 0 0 0 0 0 0 0 0 0 0 0 0 0 127 0" result="hardAlpha"/>
<feOffset/>
<feGaussianBlur stdDeviation="3.55556"/>
<feColorMatrix type="matrix" values="0 0 0 0 1 0 0 0 0 0.94902 0 0 0 0 0.305882 0 0 0 1 0"/>
<feBlend mode="normal" in2="BackgroundImageFix" result="effect1_dropShadow_208_4255"/>
<feBlend mode="normal" in="SourceGraphic" in2="effect1_dropShadow_208_4255" result="shape"/>
</filter>
<filter id="filter11_d_208_4255" x="26.2223" y="53.9997" width="19.7778" height="19.7779" filterUnits="userSpaceOnUse" color-interpolation-filters="sRGB">
<feFlood flood-opacity="0" result="BackgroundImageFix"/>
<feColorMatrix in="SourceAlpha" type="matrix" values="0 0 0 0 0 0 0 0 0 0 0 0 0 0 0 0 0 0 127 0" result="hardAlpha"/>
<feOffset/>
<feGaussianBlur stdDeviation="3.55556"/>
<feColorMatrix type="matrix" values="0 0 0 0 1 0 0 0 0 0.94902 0 0 0 0 0.305882 0 0 0 1 0"/>
<feBlend mode="normal" in2="BackgroundImageFix" result="effect1_dropShadow_208_4255"/>
<feBlend mode="normal" in="SourceGraphic" in2="effect1_dropShadow_208_4255" result="shape"/>
</filter>
<filter id="filter12_d_208_4255" x="20.6667" y="31.7776" width="21.1667" height="21.1666" filterUnits="userSpaceOnUse" color-interpolation-filters="sRGB">
<feFlood flood-opacity="0" result="BackgroundImageFix"/>
<feColorMatrix in="SourceAlpha" type="matrix" values="0 0 0 0 0 0 0 0 0 0 0 0 0 0 0 0 0 0 127 0" result="hardAlpha"/>
<feOffset/>
<feGaussianBlur stdDeviation="3.55556"/>
<feColorMatrix type="matrix" values="0 0 0 0 1 0 0 0 0 0.94902 0 0 0 0 0.305882 0 0 0 1 0"/>
<feBlend mode="normal" in2="BackgroundImageFix" result="effect1_dropShadow_208_4255"/>
<feBlend mode="normal" in="SourceGraphic" in2="effect1_dropShadow_208_4255" result="shape"/>
</filter>
<filter id="filter13_d_208_4255" x="56.7778" y="52.6111" width="18.3888" height="18.3887" filterUnits="userSpaceOnUse" color-interpolation-filters="sRGB">
<feFlood flood-opacity="0" result="BackgroundImageFix"/>
<feColorMatrix in="SourceAlpha" type="matrix" values="0 0 0 0 0 0 0 0 0 0 0 0 0 0 0 0 0 0 127 0" result="hardAlpha"/>
<feOffset/>
<feGaussianBlur stdDeviation="3.55556"/>
<feColorMatrix type="matrix" values="0 0 0 0 1 0 0 0 0 0.94902 0 0 0 0 0.305882 0 0 0 1 0"/>
<feBlend mode="normal" in2="BackgroundImageFix" result="effect1_dropShadow_208_4255"/>
<feBlend mode="normal" in="SourceGraphic" in2="effect1_dropShadow_208_4255" result="shape"/>
</filter>
<linearGradient id="paint0_linear_208_4255" x1="11.1111" y1="26.3892" x2="11.1111" y2="55.5558" gradientUnits="userSpaceOnUse">
<stop stop-color="#F7C71A"/>
<stop offset="1" stop-color="#FBAA00"/>
</linearGradient>
<linearGradient id="paint1_linear_208_4255" x1="11.1111" y1="26.3892" x2="11.1111" y2="55.5558" gradientUnits="userSpaceOnUse">
<stop stop-color="#FFDF6B"/>
<stop offset="1" stop-color="#F8A60A"/>
</linearGradient>
<linearGradient id="paint2_linear_208_4255" x1="88.8889" y1="26.3892" x2="88.8889" y2="55.5558" gradientUnits="userSpaceOnUse">
<stop stop-color="#F7C71A"/>
<stop offset="1" stop-color="#FBAA00"/>
</linearGradient>
<linearGradient id="paint3_linear_208_4255" x1="88.8889" y1="26.3892" x2="88.8889" y2="55.5558" gradientUnits="userSpaceOnUse">
<stop stop-color="#FFDF6B"/>
<stop offset="1" stop-color="#F8A60A"/>
</linearGradient>
<linearGradient id="paint4_linear_208_4255" x1="18.0555" y1="58.333" x2="18.0555" y2="71.5275" gradientUnits="userSpaceOnUse">
<stop stop-color="#F7C71A"/>
<stop offset="1" stop-color="#FBAA00"/>
</linearGradient>
<linearGradient id="paint5_linear_208_4255" x1="18.0555" y1="58.333" x2="18.0555" y2="71.5275" gradientUnits="userSpaceOnUse">
<stop stop-color="#FFDF6B"/>
<stop offset="1" stop-color="#F8A60A"/>
</linearGradient>
<linearGradient id="paint6_linear_208_4255" x1="81.9445" y1="58.333" x2="81.9445" y2="71.5275" gradientUnits="userSpaceOnUse">
<stop stop-color="#F7C71A"/>
<stop offset="1" stop-color="#FBAA00"/>
</linearGradient>
<linearGradient id="paint7_linear_208_4255" x1="81.9445" y1="58.333" x2="81.9445" y2="71.5275" gradientUnits="userSpaceOnUse">
<stop stop-color="#FFDF6B"/>
<stop offset="1" stop-color="#F8A60A"/>
</linearGradient>
<linearGradient id="paint8_linear_208_4255" x1="27.8627" y1="18.8984" x2="27.8627" y2="40.1926" gradientUnits="userSpaceOnUse">
<stop stop-color="#FBCC24"/>
<stop offset="1" stop-color="#F9B800"/>
</linearGradient>
<linearGradient id="paint9_linear_208_4255" x1="72.1375" y1="18.8984" x2="72.1375" y2="40.1926" gradientUnits="userSpaceOnUse">
<stop stop-color="#FBCC24"/>
<stop offset="1" stop-color="#F9B800"/>
</linearGradient>
<linearGradient id="paint10_linear_208_4255" x1="18.0555" y1="18.0557" x2="18.0555" y2="81.9446" gradientUnits="userSpaceOnUse">
<stop stop-color="#FDE046"/>
<stop offset="1" stop-color="#F9B800"/>
</linearGradient>
<linearGradient id="paint11_linear_208_4255" x1="27.7778" y1="27.7778" x2="27.7778" y2="72.2223" gradientUnits="userSpaceOnUse">
<stop stop-color="#FFF550"/>
<stop offset="1" stop-color="#FFD541"/>
</linearGradient>
<linearGradient id="paint12_linear_208_4255" x1="50.6527" y1="42.7587" x2="48.3" y2="38.3459" gradientUnits="userSpaceOnUse">
<stop stop-color="#FFD3D3"/>
<stop offset="1" stop-color="#FF7E8A"/>
</linearGradient>
<linearGradient id="paint13_linear_208_4255" x1="46.0718" y1="57.5591" x2="46.0718" y2="42.4404" gradientUnits="userSpaceOnUse">
<stop stop-color="#FF8B89"/>
<stop offset="1" stop-color="#F34C5D"/>
</linearGradient>
<linearGradient id="paint14_linear_208_4255" x1="47.9078" y1="61.048" x2="49.8055" y2="56.82" gradientUnits="userSpaceOnUse">
<stop stop-color="#FF7F7D"/>
<stop offset="1" stop-color="#F21248"/>
</linearGradient>
<linearGradient id="paint15_linear_208_4255" x1="58.642" y1="62.7311" x2="58.642" y2="54.7739" gradientUnits="userSpaceOnUse">
<stop stop-color="#FF8B89"/>
<stop offset="1" stop-color="#F34C5D"/>
</linearGradient>
<linearGradient id="paint16_linear_208_4255" x1="58.642" y1="57.5591" x2="58.642" y2="42.4404" gradientUnits="userSpaceOnUse">
<stop stop-color="#FF8B89"/>
<stop offset="1" stop-color="#F34C5D"/>
</linearGradient>
<linearGradient id="paint17_linear_208_4255" x1="54.0586" y1="45.1223" x2="56.1892" y2="40.9958" gradientUnits="userSpaceOnUse">
<stop stop-color="#FF7F7D"/>
<stop offset="1" stop-color="#F21248"/>
</linearGradient>
<linearGradient id="paint18_linear_208_4255" x1="53.9282" y1="57.1613" x2="53.9282" y2="42.8384" gradientUnits="userSpaceOnUse">
<stop stop-color="#FF7F7D"/>
<stop offset="1" stop-color="#F21248"/>
</linearGradient>
</defs>
<script xmlns="" id="vsc-settings-data">{}</script><script xmlns=""/></svg>