<svg xmlns="http://www.w3.org/2000/svg" width="52" height="52" viewBox="0 0 52 52" fill="none">
<g filter="url(#filter0_d_170_1505)">
<circle cx="25.6354" cy="24.4375" r="23" fill="white"/>
</g>
<mask id="mask0_170_1505" style="mask-type:alpha" maskUnits="userSpaceOnUse" x="2" y="1" width="47" height="47">
<circle cx="25.6354" cy="24.4375" r="23" fill="white"/>
</mask>
<g mask="url(#mask0_170_1505)">
<mask id="mask1_170_1505" style="mask-type:alpha" maskUnits="userSpaceOnUse" x="2" y="1" width="47" height="47">
<circle cx="25.6354" cy="24.4375" r="23" fill="white"/>
</mask>
<g mask="url(#mask1_170_1505)">
<rect x="-7.90625" y="-9.10416" width="67.0833" height="67.0833" fill="url(#paint0_linear_170_1505)"/>
<rect x="-7.90625" y="-9.10416" width="67.0833" height="67.0833" fill="url(#paint1_linear_170_1505)" fill-opacity="0.6" style="mix-blend-mode:overlay"/>
<rect x="-7.90625" y="-9.10416" width="67.0833" height="67.0833" fill="url(#paint2_radial_170_1505)" fill-opacity="0.6" style="mix-blend-mode:overlay"/>
<rect x="-7.90625" y="-9.10416" width="67.0833" height="67.0833" fill="black" fill-opacity="0.16" style="mix-blend-mode:overlay"/>
<rect x="-7.90625" y="-9.10416" width="67.0833" height="67.0833" fill="black" fill-opacity="0.12" style="mix-blend-mode:darken"/>
</g>
<g filter="url(#filter1_d_170_1505)">
<mask id="mask2_170_1505" style="mask-type:alpha" maskUnits="userSpaceOnUse" x="2" y="1" width="47" height="47">
<path d="M26.2292 1.44531C38.6573 1.76025 48.6354 11.9335 48.6354 24.4375L48.6276 25.0312C48.3127 37.4594 38.1394 47.4375 25.6354 47.4375L25.0417 47.4297C12.8108 47.1198 2.95315 37.2621 2.64322 25.0312L2.63541 24.4375C2.63541 11.735 12.9329 1.4375 25.6354 1.4375L26.2292 1.44531ZM25.6354 3.35449C13.9914 3.35449 4.5524 12.7935 4.5524 24.4375C4.5524 36.0815 13.9914 45.5205 25.6354 45.5205C37.2794 45.5205 46.7184 36.0815 46.7184 24.4375C46.7184 12.7935 37.2794 3.35449 25.6354 3.35449ZM23.5211 6.44824C24.8031 5.60063 26.4677 5.60063 27.7497 6.44824C28.0455 6.64389 28.3438 6.93287 28.9401 7.50977C29.256 7.81533 29.4143 7.96835 29.5797 8.09668C30.2845 8.64328 31.158 8.92739 32.0495 8.89941C32.2587 8.89284 32.4767 8.86134 32.9118 8.7998C33.7332 8.68361 34.1444 8.62598 34.4987 8.6416C36.0342 8.70939 37.3807 9.68752 37.9196 11.127C38.044 11.4592 38.116 11.8681 38.2594 12.6855C38.3353 13.1183 38.3729 13.3351 38.4313 13.5361C38.6802 14.3925 39.2201 15.1354 39.9577 15.6367C40.1308 15.7544 40.3254 15.8575 40.7135 16.0635C41.4463 16.4522 41.813 16.6464 42.0905 16.8672C43.2931 17.8246 43.8073 19.4083 43.3971 20.8896C43.3025 21.2315 43.1199 21.6041 42.7555 22.3496C42.5625 22.7444 42.4661 22.9426 42.3952 23.1396C42.0933 23.9785 42.0933 24.8965 42.3952 25.7354C42.4661 25.9324 42.5625 26.1306 42.7555 26.5254C43.1199 27.2709 43.3025 27.6435 43.3971 27.9854C43.8073 29.4667 43.2931 31.0504 42.0905 32.0078C41.813 32.2286 41.4463 32.4228 40.7135 32.8115C40.3254 33.0175 40.1308 33.1206 39.9577 33.2383C39.2201 33.7396 38.6802 34.4825 38.4313 35.3389C38.3729 35.5399 38.3353 35.7567 38.2594 36.1895C38.116 37.0069 38.044 37.4158 37.9196 37.748C37.3807 39.1875 36.0342 40.1656 34.4987 40.2334C34.1444 40.249 33.7332 40.1914 32.9118 40.0752C32.4767 40.0137 32.2587 39.9822 32.0495 39.9756C31.158 39.9476 30.2845 40.2317 29.5797 40.7783C29.4143 40.9067 29.256 41.0597 28.9401 41.3652C28.3438 41.9421 28.0455 42.2311 27.7497 42.4268C26.4677 43.2744 24.8031 43.2744 23.5211 42.4268C23.2253 42.2311 22.9271 41.9421 22.3307 41.3652C22.0149 41.0597 21.8565 40.9067 21.6911 40.7783C20.9863 40.2317 20.1128 39.9476 19.2213 39.9756C19.0121 39.9822 18.7941 40.0137 18.359 40.0752C17.5376 40.1914 17.1265 40.249 16.7721 40.2334C15.2366 40.1656 13.8901 39.1875 13.3512 37.748C13.2269 37.4158 13.1548 37.0069 13.0114 36.1895C12.9355 35.7567 12.8979 35.5399 12.8395 35.3389C12.5906 34.4825 12.0507 33.7396 11.3131 33.2383C11.14 33.1206 10.9455 33.0175 10.5573 32.8115C9.82456 32.4228 9.45779 32.2286 9.18033 32.0078C7.97776 31.0504 7.46352 29.4667 7.87369 27.9854C7.96835 27.6435 8.15087 27.2709 8.51529 26.5254C8.70829 26.1306 8.80472 25.9324 8.87564 25.7354C9.17748 24.8965 9.17748 23.9785 8.87564 23.1396C8.80472 22.9426 8.70829 22.7444 8.51529 22.3496C8.15087 21.6041 7.96835 21.2315 7.87369 20.8896C7.46352 19.4083 7.97776 17.8246 9.18033 16.8672C9.45779 16.6464 9.82456 16.4522 10.5573 16.0635C10.9455 15.8575 11.14 15.7544 11.3131 15.6367C12.0507 15.1354 12.5906 14.3925 12.8395 13.5361C12.8979 13.3351 12.9355 13.1183 13.0114 12.6855C13.1548 11.8681 13.2269 11.4592 13.3512 11.127C13.8901 9.68752 15.2366 8.70939 16.7721 8.6416C17.1265 8.62598 17.5376 8.68361 18.359 8.7998C18.7941 8.86134 19.0121 8.89284 19.2213 8.89941C20.1128 8.92739 20.9863 8.64328 21.6911 8.09668C21.8565 7.96835 22.0149 7.81533 22.3307 7.50977C22.9271 6.93287 23.2253 6.64389 23.5211 6.44824Z" fill="white"/>
</mask>
<g mask="url(#mask2_170_1505)">
<rect x="-7.90625" y="-9.10416" width="67.0833" height="67.0833" fill="url(#paint3_linear_170_1505)"/>
<rect x="-7.90625" y="-9.10416" width="67.0833" height="67.0833" fill="url(#paint4_linear_170_1505)" fill-opacity="0.6" style="mix-blend-mode:overlay"/>
<rect x="-7.90625" y="-9.10416" width="67.0833" height="67.0833" fill="url(#paint5_radial_170_1505)" fill-opacity="0.6" style="mix-blend-mode:overlay"/>
<g style="mix-blend-mode:soft-light">
<path fill-rule="evenodd" clip-rule="evenodd" d="M-7.90625 -9.10416H32.3437L19.498 57.9792H-7.90625V-9.10416Z" fill="url(#paint6_linear_170_1505)" style="mix-blend-mode:lighten"/>
</g>
<g style="mix-blend-mode:plus-lighter" opacity="0.04">
<path d="M32.3437 51.2708H18.9267L25.6357 24.4378L32.3437 51.2708ZM11.4052 48.1555L1.91791 38.6682L25.6357 24.4378L11.4052 48.1555ZM49.3525 38.6682L39.8661 48.1555L25.6357 24.4378L49.3525 38.6682ZM25.6357 24.4378L-1.1983 31.1458V17.7288L25.6357 24.4378ZM52.4687 31.1458L25.6357 24.4378L52.4687 17.7288V31.1458ZM25.6357 24.4378L18.9267 -2.39621H32.3437L25.6357 24.4378ZM49.3535 10.2073L25.6357 24.4378L39.8661 0.720001L49.3535 10.2073ZM25.6357 24.4378L1.91791 10.2073L11.4052 0.720001L25.6357 24.4378Z" fill="url(#paint7_radial_170_1505)"/>
</g>
<g style="mix-blend-mode:soft-light">
<mask id="path-12-inside-1_170_1505" fill="white">
<path d="M26.2292 1.44531C38.6573 1.76025 48.6354 11.9335 48.6354 24.4375L48.6276 25.0312C48.3127 37.4594 38.1394 47.4375 25.6354 47.4375L25.0417 47.4297C12.8108 47.1198 2.95315 37.2621 2.64322 25.0312L2.63541 24.4375C2.63541 11.735 12.9329 1.4375 25.6354 1.4375L26.2292 1.44531ZM25.6354 3.35449C13.9914 3.35449 4.5524 12.7935 4.5524 24.4375C4.5524 36.0815 13.9914 45.5205 25.6354 45.5205C37.2794 45.5205 46.7184 36.0815 46.7184 24.4375C46.7184 12.7935 37.2794 3.35449 25.6354 3.35449ZM23.5211 6.44824C24.8031 5.60063 26.4677 5.60063 27.7497 6.44824C28.0455 6.64389 28.3438 6.93287 28.9401 7.50977C29.256 7.81533 29.4143 7.96835 29.5797 8.09668C30.2845 8.64328 31.158 8.92739 32.0495 8.89941C32.2587 8.89284 32.4767 8.86134 32.9118 8.7998C33.7332 8.68361 34.1444 8.62598 34.4987 8.6416C36.0342 8.70939 37.3807 9.68752 37.9196 11.127C38.044 11.4592 38.116 11.8681 38.2594 12.6855C38.3353 13.1183 38.3729 13.3351 38.4313 13.5361C38.6802 14.3925 39.2201 15.1354 39.9577 15.6367C40.1308 15.7544 40.3254 15.8575 40.7135 16.0635C41.4463 16.4522 41.813 16.6464 42.0905 16.8672C43.2931 17.8246 43.8073 19.4083 43.3971 20.8896C43.3025 21.2315 43.1199 21.6041 42.7555 22.3496C42.5625 22.7444 42.4661 22.9426 42.3952 23.1396C42.0933 23.9785 42.0933 24.8965 42.3952 25.7354C42.4661 25.9324 42.5625 26.1306 42.7555 26.5254C43.1199 27.2709 43.3025 27.6435 43.3971 27.9854C43.8073 29.4667 43.2931 31.0504 42.0905 32.0078C41.813 32.2286 41.4463 32.4228 40.7135 32.8115C40.3254 33.0175 40.1308 33.1206 39.9577 33.2383C39.2201 33.7396 38.6802 34.4825 38.4313 35.3389C38.3729 35.5399 38.3353 35.7567 38.2594 36.1895C38.116 37.0069 38.044 37.4158 37.9196 37.748C37.3807 39.1875 36.0342 40.1656 34.4987 40.2334C34.1444 40.249 33.7332 40.1914 32.9118 40.0752C32.4767 40.0137 32.2587 39.9822 32.0495 39.9756C31.158 39.9476 30.2845 40.2317 29.5797 40.7783C29.4143 40.9067 29.256 41.0597 28.9401 41.3652C28.3438 41.9421 28.0455 42.2311 27.7497 42.4268C26.4677 43.2744 24.8031 43.2744 23.5211 42.4268C23.2253 42.2311 22.9271 41.9421 22.3307 41.3652C22.0149 41.0597 21.8565 40.9067 21.6911 40.7783C20.9863 40.2317 20.1128 39.9476 19.2213 39.9756C19.0121 39.9822 18.7941 40.0137 18.359 40.0752C17.5376 40.1914 17.1265 40.249 16.7721 40.2334C15.2366 40.1656 13.8901 39.1875 13.3512 37.748C13.2269 37.4158 13.1548 37.0069 13.0114 36.1895C12.9355 35.7567 12.8979 35.5399 12.8395 35.3389C12.5906 34.4825 12.0507 33.7396 11.3131 33.2383C11.14 33.1206 10.9455 33.0175 10.5573 32.8115C9.82456 32.4228 9.45779 32.2286 9.18033 32.0078C7.97776 31.0504 7.46352 29.4667 7.87369 27.9854C7.96835 27.6435 8.15087 27.2709 8.51529 26.5254C8.70829 26.1306 8.80472 25.9324 8.87564 25.7354C9.17748 24.8965 9.17748 23.9785 8.87564 23.1396C8.80472 22.9426 8.70829 22.7444 8.51529 22.3496C8.15087 21.6041 7.96835 21.2315 7.87369 20.8896C7.46352 19.4083 7.97776 17.8246 9.18033 16.8672C9.45779 16.6464 9.82456 16.4522 10.5573 16.0635C10.9455 15.8575 11.14 15.7544 11.3131 15.6367C12.0507 15.1354 12.5906 14.3925 12.8395 13.5361C12.8979 13.3351 12.9355 13.1183 13.0114 12.6855C13.1548 11.8681 13.2269 11.4592 13.3512 11.127C13.8901 9.68752 15.2366 8.70939 16.7721 8.6416C17.1265 8.62598 17.5376 8.68361 18.359 8.7998C18.7941 8.86134 19.0121 8.89284 19.2213 8.89941C20.1128 8.92739 20.9863 8.64328 21.6911 8.09668C21.8565 7.96835 22.0149 7.81533 22.3307 7.50977C22.9271 6.93287 23.2253 6.64389 23.5211 6.44824Z"/>
</mask>
<path d="M26.2292 1.44531L26.2322 1.32555L26.2307 1.32553L26.2292 1.44531ZM48.6354 24.4375L48.7552 24.4391V24.4375H48.6354ZM48.6276 25.0312L48.7474 25.0343L48.7474 25.0328L48.6276 25.0312ZM25.6354 47.4375L25.6338 47.5573H25.6354V47.4375ZM25.0417 47.4297L25.0386 47.5494L25.0401 47.5495L25.0417 47.4297ZM2.64322 25.0312L2.52343 25.0328L2.52347 25.0343L2.64322 25.0312ZM2.63541 24.4375H2.5156L2.51563 24.4391L2.63541 24.4375ZM25.6354 1.4375L25.637 1.31771H25.6354V1.4375ZM25.6354 3.35449V3.2347V3.35449ZM4.5524 24.4375H4.43261H4.5524ZM25.6354 45.5205V45.6403V45.5205ZM46.7184 24.4375H46.8382H46.7184ZM23.5211 6.44824L23.4551 6.34832L23.4551 6.34832L23.5211 6.44824ZM27.7497 6.44824L27.8157 6.34832L27.8157 6.34832L27.7497 6.44824ZM28.9401 7.50977L29.0234 7.42367L28.9401 7.50977ZM29.5797 8.09668L29.5063 8.19134V8.19134L29.5797 8.09668ZM32.0495 8.89941L32.0532 9.01915L32.0532 9.01915L32.0495 8.89941ZM32.9118 8.7998L32.895 8.68119L32.9118 8.7998ZM34.4987 8.6416L34.504 8.52193L34.504 8.52193L34.4987 8.6416ZM37.9196 11.127L38.0318 11.085V11.085L37.9196 11.127ZM38.2594 12.6855L38.1414 12.7062L38.2594 12.6855ZM38.4313 13.5361L38.3163 13.5696V13.5696L38.4313 13.5361ZM39.9577 15.6367L39.8903 15.7358V15.7358L39.9577 15.6367ZM40.7135 16.0635L40.7697 15.9577L40.7135 16.0635ZM42.0905 16.8672L42.1651 16.7735L42.1651 16.7735L42.0905 16.8672ZM43.3971 20.8896L43.5126 20.9216V20.9216L43.3971 20.8896ZM42.7555 22.3496L42.8631 22.4022L42.7555 22.3496ZM42.3952 23.1396L42.2825 23.0991L42.2825 23.0991L42.3952 23.1396ZM42.3952 25.7354L42.2825 25.7759L42.2825 25.7759L42.3952 25.7354ZM42.7555 26.5254L42.8631 26.4728L42.7555 26.5254ZM43.3971 27.9854L43.5126 27.9534V27.9534L43.3971 27.9854ZM42.0905 32.0078L42.1651 32.1015L42.1651 32.1015L42.0905 32.0078ZM40.7135 32.8115L40.7697 32.9173L40.7135 32.8115ZM39.9577 33.2383L39.8903 33.1392V33.1392L39.9577 33.2383ZM38.4313 35.3389L38.3163 35.3054V35.3054L38.4313 35.3389ZM38.2594 36.1895L38.1414 36.1688L38.2594 36.1895ZM37.9196 37.748L38.0318 37.79L37.9196 37.748ZM34.4987 40.2334L34.504 40.3531H34.504L34.4987 40.2334ZM32.9118 40.0752L32.895 40.1938L32.9118 40.0752ZM32.0495 39.9756L32.0532 39.8559H32.0532L32.0495 39.9756ZM29.5797 40.7783L29.5063 40.6837L29.5797 40.7783ZM28.9401 41.3652L29.0234 41.4513L28.9401 41.3652ZM27.7497 42.4268L27.8157 42.5267L27.8157 42.5267L27.7497 42.4268ZM23.5211 42.4268L23.4551 42.5267L23.4551 42.5267L23.5211 42.4268ZM22.3307 41.3652L22.2474 41.4513L22.3307 41.3652ZM21.6911 40.7783L21.7645 40.6837L21.6911 40.7783ZM19.2213 39.9756L19.2176 39.8559H19.2176L19.2213 39.9756ZM18.359 40.0752L18.3758 40.1938L18.359 40.0752ZM16.7721 40.2334L16.7668 40.3531H16.7669L16.7721 40.2334ZM13.3512 37.748L13.239 37.79H13.239L13.3512 37.748ZM13.0114 36.1895L13.1294 36.1688L13.0114 36.1895ZM12.8395 35.3389L12.9545 35.3054L12.9545 35.3054L12.8395 35.3389ZM11.3131 33.2383L11.3805 33.1392L11.3805 33.1392L11.3131 33.2383ZM10.5573 32.8115L10.5011 32.9173L10.5573 32.8115ZM9.18033 32.0078L9.10572 32.1015L9.10573 32.1015L9.18033 32.0078ZM7.87369 27.9854L7.75824 27.9534L7.75824 27.9534L7.87369 27.9854ZM8.51529 26.5254L8.40767 26.4728L8.51529 26.5254ZM8.87564 25.7354L8.98835 25.7759L8.98836 25.7759L8.87564 25.7354ZM8.87564 23.1396L8.98836 23.0991L8.98835 23.0991L8.87564 23.1396ZM8.51529 22.3496L8.40767 22.4022L8.51529 22.3496ZM7.87369 20.8896L7.75824 20.9216L7.75824 20.9216L7.87369 20.8896ZM9.18033 16.8672L9.10573 16.7735L9.10572 16.7735L9.18033 16.8672ZM10.5573 16.0635L10.5011 15.9577L10.5573 16.0635ZM11.3131 15.6367L11.3805 15.7358L11.3805 15.7358L11.3131 15.6367ZM12.8395 13.5361L12.9545 13.5696L12.9545 13.5696L12.8395 13.5361ZM13.0114 12.6855L13.1294 12.7062L13.0114 12.6855ZM13.3512 11.127L13.239 11.085L13.239 11.085L13.3512 11.127ZM16.7721 8.6416L16.7669 8.52193L16.7668 8.52193L16.7721 8.6416ZM18.359 8.7998L18.3758 8.68119L18.359 8.7998ZM19.2213 8.89941L19.2176 9.01915L19.2176 9.01915L19.2213 8.89941ZM21.6911 8.09668L21.7645 8.19134V8.19134L21.6911 8.09668ZM22.3307 7.50977L22.2474 7.42367L22.3307 7.50977ZM26.2292 1.44531L26.2261 1.56507C38.5895 1.87836 48.5156 11.9986 48.5156 24.4375H48.6354H48.7552C48.7552 11.8683 38.7251 1.64213 26.2322 1.32556L26.2292 1.44531ZM48.6354 24.4375L48.5156 24.4359L48.5078 25.0297L48.6276 25.0312L48.7474 25.0328L48.7552 24.4391L48.6354 24.4375ZM48.6276 25.0312L48.5078 25.0282C48.1945 37.3916 38.0743 47.3177 25.6354 47.3177V47.4375V47.5573C38.2046 47.5573 48.4308 37.5272 48.7473 25.0343L48.6276 25.0312ZM25.6354 47.4375L25.637 47.3177L25.0432 47.3099L25.0417 47.4297L25.0401 47.5495L25.6338 47.5573L25.6354 47.4375ZM25.0417 47.4297L25.0447 47.3099C12.8776 47.0016 3.07129 37.1953 2.76297 25.0282L2.64322 25.0312L2.52347 25.0343C2.83502 37.3289 12.744 47.2379 25.0386 47.5494L25.0417 47.4297ZM2.64322 25.0312L2.763 25.0297L2.75519 24.4359L2.63541 24.4375L2.51563 24.4391L2.52344 25.0328L2.64322 25.0312ZM2.63541 24.4375H2.7552C2.7552 11.8011 12.999 1.55729 25.6354 1.55729V1.4375V1.31771C12.8667 1.31771 2.51561 11.6688 2.51561 24.4375H2.63541ZM25.6354 1.4375L25.6338 1.55728L26.2276 1.56509L26.2292 1.44531L26.2307 1.32553L25.637 1.31772L25.6354 1.4375ZM25.6354 3.35449V3.2347C13.9252 3.2347 4.43261 12.7273 4.43261 24.4375H4.5524H4.67219C4.67219 12.8597 14.0576 3.47428 25.6354 3.47428V3.35449ZM4.5524 24.4375H4.43261C4.43261 36.1477 13.9252 45.6403 25.6354 45.6403V45.5205V45.4007C14.0576 45.4007 4.67219 36.0153 4.67219 24.4375H4.5524ZM25.6354 45.5205V45.6403C37.3456 45.6403 46.8382 36.1477 46.8382 24.4375H46.7184H46.5986C46.5986 36.0153 37.2132 45.4007 25.6354 45.4007V45.5205ZM46.7184 24.4375H46.8382C46.8382 12.7273 37.3456 3.2347 25.6354 3.2347V3.35449V3.47428C37.2132 3.47429 46.5986 12.8597 46.5986 24.4375H46.7184ZM23.5211 6.44824L23.5872 6.54817C24.8292 5.72704 26.4417 5.72704 27.6836 6.54817L27.7497 6.44824L27.8157 6.34832C26.4937 5.47422 24.7771 5.47422 23.4551 6.34832L23.5211 6.44824ZM27.7497 6.44824L27.6836 6.54816C27.9679 6.73615 28.2566 7.0152 28.8568 7.59586L28.9401 7.50977L29.0234 7.42367C28.4309 6.85054 28.1232 6.55163 27.8157 6.34832L27.7497 6.44824ZM28.9401 7.50977L28.8568 7.59586C29.1708 7.89961 29.3345 8.05806 29.5063 8.19134L29.5797 8.09668L29.6532 8.00202C29.4941 7.87863 29.3411 7.73106 29.0234 7.42367L28.9401 7.50977ZM29.5797 8.09668L29.5063 8.19134C30.2331 8.755 31.1339 9.04799 32.0532 9.01915L32.0495 8.89941L32.0457 8.77968C31.1821 8.80678 30.3359 8.53155 29.6532 8.00202L29.5797 8.09668ZM32.0495 8.89941L32.0532 9.01915C32.2706 9.01231 32.4965 8.97953 32.9286 8.91842L32.9118 8.7998L32.895 8.68119C32.457 8.74315 32.2468 8.77336 32.0457 8.77968L32.0495 8.89941ZM32.9118 8.7998L32.9286 8.91842C33.7552 8.8015 34.1529 8.74627 34.4934 8.76128L34.4987 8.6416L34.504 8.52193C34.1358 8.5057 33.7113 8.56573 32.895 8.68119L32.9118 8.7998ZM34.4987 8.6416L34.4934 8.76128C35.9809 8.82695 37.2854 9.77452 37.8074 11.169L37.9196 11.127L38.0318 11.085C37.476 9.60053 36.0874 8.59184 34.504 8.52193L34.4987 8.6416ZM37.9196 11.127L37.8074 11.169C37.9269 11.4882 37.9971 11.8836 38.1414 12.7062L38.2594 12.6855L38.3774 12.6648C38.2349 11.8525 38.161 11.4302 38.0318 11.085L37.9196 11.127ZM38.2594 12.6855L38.1414 12.7062C38.2169 13.1362 38.2556 13.3607 38.3163 13.5696L38.4313 13.5361L38.5463 13.5027C38.4902 13.3095 38.4538 13.1005 38.3774 12.6648L38.2594 12.6855ZM38.4313 13.5361L38.3163 13.5696C38.573 14.4527 39.1297 15.2188 39.8903 15.7358L39.9577 15.6367L40.025 15.5376C39.3105 15.052 38.7875 14.3323 38.5463 13.5027L38.4313 13.5361ZM39.9577 15.6367L39.8903 15.7358C40.0702 15.858 40.2716 15.9646 40.6574 16.1693L40.7135 16.0635L40.7697 15.9577C40.3791 15.7504 40.1915 15.6508 40.025 15.5376L39.9577 15.6367ZM40.7135 16.0635L40.6574 16.1693C41.3949 16.5606 41.7493 16.7487 42.0159 16.9609L42.0905 16.8672L42.1651 16.7735C41.8768 16.544 41.4976 16.3439 40.7697 15.9577L40.7135 16.0635ZM42.0905 16.8672L42.0159 16.9609C43.1808 17.8884 43.679 19.4226 43.2817 20.8577L43.3971 20.8896L43.5126 20.9216C43.9356 19.394 43.4053 17.7608 42.1651 16.7735L42.0905 16.8672ZM43.3971 20.8896L43.2817 20.8577C43.1907 21.1861 43.0147 21.5466 42.6479 22.297L42.7555 22.3496L42.8631 22.4022C43.2252 21.6616 43.4142 21.2768 43.5126 20.9216L43.3971 20.8896ZM42.7555 22.3496L42.6479 22.297C42.456 22.6896 42.3561 22.8945 42.2825 23.0991L42.3952 23.1396L42.5079 23.1802C42.5761 22.9908 42.6691 22.7993 42.8631 22.4022L42.7555 22.3496ZM42.3952 23.1396L42.2825 23.0991C41.9712 23.9642 41.9712 24.9108 42.2825 25.7759L42.3952 25.7354L42.5079 25.6948C42.2155 24.8821 42.2155 23.9929 42.5079 23.1802L42.3952 23.1396ZM42.3952 25.7354L42.2825 25.7759C42.3561 25.9805 42.456 26.1854 42.6479 26.578L42.7555 26.5254L42.8631 26.4728C42.6691 26.0757 42.5761 25.8842 42.5079 25.6948L42.3952 25.7354ZM42.7555 26.5254L42.6479 26.578C43.0147 27.3284 43.1907 27.6889 43.2817 28.0173L43.3971 27.9854L43.5126 27.9534C43.4142 27.5982 43.2252 27.2134 42.8631 26.4728L42.7555 26.5254ZM43.3971 27.9854L43.2817 28.0173C43.679 29.4524 43.1808 30.9866 42.0159 31.9141L42.0905 32.0078L42.1651 32.1015C43.4053 31.1142 43.9356 29.481 43.5126 27.9534L43.3971 27.9854ZM42.0905 32.0078L42.0159 31.9141C41.7493 32.1263 41.3949 32.3144 40.6574 32.7057L40.7135 32.8115L40.7697 32.9173C41.4976 32.5311 41.8768 32.331 42.1651 32.1015L42.0905 32.0078ZM40.7135 32.8115L40.6574 32.7057C40.2716 32.9104 40.0702 33.017 39.8903 33.1392L39.9577 33.2383L40.025 33.3374C40.1915 33.2242 40.3791 33.1246 40.7697 32.9173L40.7135 32.8115ZM39.9577 33.2383L39.8903 33.1392C39.1297 33.6562 38.573 34.4223 38.3163 35.3054L38.4313 35.3389L38.5463 35.3723C38.7875 34.5427 39.3105 33.823 40.025 33.3374L39.9577 33.2383ZM38.4313 35.3389L38.3163 35.3054C38.2556 35.5143 38.2169 35.7388 38.1414 36.1688L38.2594 36.1895L38.3774 36.2102C38.4538 35.7745 38.4902 35.5655 38.5463 35.3723L38.4313 35.3389ZM38.2594 36.1895L38.1414 36.1688C37.9971 36.9914 37.9269 37.3868 37.8074 37.706L37.9196 37.748L38.0318 37.79C38.161 37.4449 38.2349 37.0225 38.3774 36.2102L38.2594 36.1895ZM37.9196 37.748L37.8074 37.706C37.2854 39.1005 35.9809 40.048 34.4934 40.1137L34.4987 40.2334L34.504 40.3531C36.0874 40.2832 37.476 39.2745 38.0318 37.79L37.9196 37.748ZM34.4987 40.2334L34.4934 40.1137C34.1529 40.1287 33.7552 40.0735 32.9286 39.9566L32.9118 40.0752L32.895 40.1938C33.7113 40.3093 34.1358 40.3693 34.504 40.3531L34.4987 40.2334ZM32.9118 40.0752L32.9286 39.9566C32.4965 39.8955 32.2706 39.8627 32.0532 39.8559L32.0495 39.9756L32.0457 40.0953C32.2468 40.1016 32.457 40.1319 32.895 40.1938L32.9118 40.0752ZM32.0495 39.9756L32.0532 39.8559C31.1339 39.827 30.2331 40.12 29.5063 40.6837L29.5797 40.7783L29.6532 40.873C30.3359 40.3434 31.1821 40.0682 32.0457 40.0953L32.0495 39.9756ZM29.5797 40.7783L29.5063 40.6837C29.3345 40.8169 29.1708 40.9754 28.8568 41.2791L28.9401 41.3652L29.0234 41.4513C29.3411 41.1439 29.4941 40.9964 29.6532 40.873L29.5797 40.7783ZM28.9401 41.3652L28.8568 41.2791C28.2566 41.8598 27.9679 42.1389 27.6836 42.3268L27.7497 42.4268L27.8157 42.5267C28.1232 42.3234 28.4309 42.0245 29.0234 41.4513L28.9401 41.3652ZM27.7497 42.4268L27.6836 42.3268C26.4417 43.148 24.8292 43.148 23.5872 42.3268L23.5211 42.4268L23.4551 42.5267C24.7771 43.4008 26.4937 43.4008 27.8157 42.5267L27.7497 42.4268ZM23.5211 42.4268L23.5872 42.3268C23.303 42.1389 23.0142 41.8598 22.414 41.2791L22.3307 41.3652L22.2474 41.4513C22.8399 42.0245 23.1476 42.3234 23.4551 42.5267L23.5211 42.4268ZM22.3307 41.3652L22.414 41.2791C22.1 40.9754 21.9363 40.8169 21.7645 40.6837L21.6911 40.7783L21.6177 40.873C21.7767 40.9964 21.9297 41.1439 22.2474 41.4513L22.3307 41.3652ZM21.6911 40.7783L21.7645 40.6837C21.0377 40.12 20.1369 39.827 19.2176 39.8559L19.2213 39.9756L19.2251 40.0953C20.0887 40.0682 20.9349 40.3434 21.6177 40.873L21.6911 40.7783ZM19.2213 39.9756L19.2176 39.8559C19.0002 39.8627 18.7744 39.8955 18.3423 39.9566L18.359 40.0752L18.3758 40.1938C18.8138 40.1319 19.024 40.1016 19.2251 40.0953L19.2213 39.9756ZM18.359 40.0752L18.3423 39.9566C17.5156 40.0735 17.1179 40.1287 16.7774 40.1137L16.7721 40.2334L16.7669 40.3531C17.135 40.3693 17.5595 40.3093 18.3758 40.1938L18.359 40.0752ZM16.7721 40.2334L16.7774 40.1137C15.2899 40.048 13.9855 39.1005 13.4634 37.706L13.3512 37.748L13.239 37.79C13.7948 39.2745 15.1834 40.2832 16.7668 40.3531L16.7721 40.2334ZM13.3512 37.748L13.4634 37.706C13.3439 37.3868 13.2737 36.9914 13.1294 36.1688L13.0114 36.1895L12.8934 36.2102C13.0359 37.0225 13.1098 37.4449 13.239 37.79L13.3512 37.748ZM13.0114 36.1895L13.1294 36.1688C13.054 35.7388 13.0152 35.5143 12.9545 35.3054L12.8395 35.3389L12.7245 35.3723C12.7806 35.5655 12.817 35.7745 12.8934 36.2102L13.0114 36.1895ZM12.8395 35.3389L12.9545 35.3054C12.6979 34.4223 12.1411 33.6562 11.3805 33.1392L11.3131 33.2383L11.2458 33.3374C11.9603 33.823 12.4834 34.5427 12.7245 35.3723L12.8395 35.3389ZM11.3131 33.2383L11.3805 33.1392C11.2006 33.017 10.9992 32.9104 10.6134 32.7057L10.5573 32.8115L10.5011 32.9173C10.8917 33.1246 11.0793 33.2242 11.2458 33.3374L11.3131 33.2383ZM10.5573 32.8115L10.6134 32.7057C9.8759 32.3144 9.52153 32.1263 9.25493 31.9141L9.18033 32.0078L9.10573 32.1015C9.39405 32.331 9.77322 32.5311 10.5011 32.9173L10.5573 32.8115ZM9.18033 32.0078L9.25494 31.9141C8.08997 30.9866 7.59178 29.4524 7.98914 28.0173L7.87369 27.9854L7.75824 27.9534C7.33526 29.481 7.86555 31.1142 9.10572 32.1015L9.18033 32.0078ZM7.87369 27.9854L7.98913 28.0173C8.08009 27.6889 8.25611 27.3284 8.62291 26.578L8.51529 26.5254L8.40767 26.4728C8.04563 27.2134 7.85661 27.5982 7.75824 27.9534L7.87369 27.9854ZM8.51529 26.5254L8.62291 26.578C8.81483 26.1854 8.91471 25.9805 8.98835 25.7759L8.87564 25.7354L8.76293 25.6948C8.69473 25.8842 8.60176 26.0757 8.40767 26.4728L8.51529 26.5254ZM8.87564 25.7354L8.98836 25.7759C9.29963 24.9108 9.29963 23.9642 8.98836 23.0991L8.87564 23.1396L8.76292 23.1802C9.05533 23.9929 9.05533 24.8821 8.76292 25.6948L8.87564 25.7354ZM8.87564 23.1396L8.98835 23.0991C8.91471 22.8945 8.81483 22.6896 8.62291 22.297L8.51529 22.3496L8.40767 22.4022C8.60176 22.7993 8.69473 22.9908 8.76293 23.1802L8.87564 23.1396ZM8.51529 22.3496L8.62291 22.297C8.25611 21.5466 8.08009 21.1861 7.98913 20.8577L7.87369 20.8896L7.75824 20.9216C7.85661 21.2768 8.04563 21.6616 8.40767 22.4022L8.51529 22.3496ZM7.87369 20.8896L7.98914 20.8577C7.59178 19.4226 8.08997 17.8884 9.25494 16.9609L9.18033 16.8672L9.10572 16.7735C7.86555 17.7608 7.33526 19.394 7.75824 20.9216L7.87369 20.8896ZM9.18033 16.8672L9.25493 16.9609C9.52153 16.7487 9.8759 16.5606 10.6134 16.1693L10.5573 16.0635L10.5011 15.9577C9.77322 16.3439 9.39405 16.544 9.10573 16.7735L9.18033 16.8672ZM10.5573 16.0635L10.6134 16.1693C10.9992 15.9646 11.2006 15.858 11.3805 15.7358L11.3131 15.6367L11.2458 15.5376C11.0793 15.6508 10.8917 15.7504 10.5011 15.9577L10.5573 16.0635ZM11.3131 15.6367L11.3805 15.7358C12.1411 15.2188 12.6979 14.4527 12.9545 13.5696L12.8395 13.5361L12.7245 13.5027C12.4834 14.3323 11.9603 15.052 11.2458 15.5376L11.3131 15.6367ZM12.8395 13.5361L12.9545 13.5696C13.0152 13.3607 13.054 13.1362 13.1294 12.7062L13.0114 12.6855L12.8934 12.6648C12.817 13.1005 12.7806 13.3095 12.7245 13.5027L12.8395 13.5361ZM13.0114 12.6855L13.1294 12.7062C13.2737 11.8836 13.3439 11.4882 13.4634 11.169L13.3512 11.127L13.239 11.085C13.1098 11.4302 13.0359 11.8525 12.8934 12.6648L13.0114 12.6855ZM13.3512 11.127L13.4634 11.169C13.9855 9.77452 15.2899 8.82695 16.7774 8.76128L16.7721 8.6416L16.7668 8.52193C15.1834 8.59184 13.7948 9.60053 13.239 11.085L13.3512 11.127ZM16.7721 8.6416L16.7774 8.76128C17.1179 8.74627 17.5156 8.8015 18.3423 8.91842L18.359 8.7998L18.3758 8.68119C17.5595 8.56573 17.135 8.5057 16.7669 8.52193L16.7721 8.6416ZM18.359 8.7998L18.3423 8.91842C18.7744 8.97953 19.0002 9.01231 19.2176 9.01915L19.2213 8.89941L19.2251 8.77968C19.024 8.77336 18.8138 8.74315 18.3758 8.68119L18.359 8.7998ZM19.2213 8.89941L19.2176 9.01915C20.1369 9.04799 21.0377 8.755 21.7645 8.19134L21.6911 8.09668L21.6177 8.00202C20.9349 8.53155 20.0887 8.80678 19.2251 8.77968L19.2213 8.89941ZM21.6911 8.09668L21.7645 8.19134C21.9363 8.05806 22.1 7.89961 22.414 7.59586L22.3307 7.50977L22.2474 7.42367C21.9297 7.73106 21.7767 7.87863 21.6177 8.00202L21.6911 8.09668ZM22.3307 7.50977L22.414 7.59586C23.0142 7.0152 23.303 6.73615 23.5872 6.54816L23.5211 6.44824L23.4551 6.34832C23.1476 6.55163 22.8399 6.85054 22.2474 7.42367L22.3307 7.50977Z" fill="url(#paint8_linear_170_1505)" mask="url(#path-12-inside-1_170_1505)"/>
</g>
</g>
</g>
<g filter="url(#filter2_i_170_1505)">
<path d="M24.2411 17.9018C24.6844 16.9327 24.9061 16.4482 25.2128 16.2975C25.4793 16.1666 25.7915 16.1666 26.058 16.2975C26.3647 16.4482 26.5864 16.9327 27.0297 17.9018L28.0461 20.1232C28.1835 20.4236 28.2522 20.5737 28.3578 20.6871C28.4513 20.7875 28.5651 20.8666 28.6918 20.9192C28.8349 20.9786 28.9996 20.9906 29.329 21.0146L31.6853 21.1863C32.9199 21.2763 33.5372 21.3213 33.7906 21.5796C34.0103 21.8035 34.1065 22.1207 34.0482 22.4289C33.9809 22.7845 33.4926 23.1648 32.5159 23.9254L30.9446 25.149C30.6561 25.3736 30.5119 25.486 30.4221 25.6295C30.3426 25.7563 30.294 25.8999 30.2801 26.0489C30.2644 26.2175 30.3108 26.3943 30.4036 26.748L30.9205 28.7181C31.2075 29.8119 31.351 30.3588 31.2008 30.6749C31.0704 30.9493 30.8176 31.1456 30.5194 31.204C30.176 31.2712 29.6817 30.9968 28.693 30.4478L26.3798 29.1633C26.1081 29.0125 25.9722 28.937 25.8284 28.9075C25.7011 28.8813 25.5698 28.8813 25.4424 28.9075C25.2986 28.937 25.1627 29.0125 24.8911 29.1633L22.5778 30.4478C21.5892 30.9968 21.0949 31.2712 20.7514 31.204C20.4533 31.1456 20.2005 30.9493 20.0701 30.6749C19.9198 30.3588 20.0633 29.8119 20.3503 28.7181L20.8673 26.748C20.9601 26.3943 21.0065 26.2175 20.9907 26.0489C20.9768 25.8999 20.9282 25.7563 20.8488 25.6295C20.7589 25.486 20.6147 25.3736 20.3262 25.149L18.7549 23.9254C17.7783 23.1648 17.2899 22.7845 17.2226 22.4289C17.1643 22.1207 17.2605 21.8035 17.4802 21.5796C17.7337 21.3213 18.351 21.2763 19.5856 21.1863L21.9419 21.0146C22.2712 20.9906 22.4359 20.9786 22.5791 20.9192C22.7057 20.8666 22.8196 20.7875 22.913 20.6871C23.0186 20.5737 23.0873 20.4236 23.2247 20.1232L24.2411 17.9018Z" fill="url(#paint9_linear_170_1505)"/>
</g>
</g>
<defs>
<filter id="filter0_d_170_1505" x="-9.77516e-06" y="4.76837e-07" width="51.2708" height="51.2708" filterUnits="userSpaceOnUse" color-interpolation-filters="sRGB">
<feFlood flood-opacity="0" result="BackgroundImageFix"/>
<feColorMatrix in="SourceAlpha" type="matrix" values="0 0 0 0 0 0 0 0 0 0 0 0 0 0 0 0 0 0 127 0" result="hardAlpha"/>
<feOffset dy="1.19792"/>
<feGaussianBlur stdDeviation="1.31771"/>
<feColorMatrix type="matrix" values="0 0 0 0 0 0 0 0 0 0 0 0 0 0 0 0 0 0 0.24 0"/>
<feBlend mode="normal" in2="BackgroundImageFix" result="effect1_dropShadow_170_1505"/>
<feBlend mode="normal" in="SourceGraphic" in2="effect1_dropShadow_170_1505" result="shape"/>
</filter>
<filter id="filter1_d_170_1505" x="0.71874" y="1.19209e-07" width="49.8333" height="49.8333" filterUnits="userSpaceOnUse" color-interpolation-filters="sRGB">
<feFlood flood-opacity="0" result="BackgroundImageFix"/>
<feColorMatrix in="SourceAlpha" type="matrix" values="0 0 0 0 0 0 0 0 0 0 0 0 0 0 0 0 0 0 127 0" result="hardAlpha"/>
<feOffset dy="0.479167"/>
<feGaussianBlur stdDeviation="0.958333"/>
<feColorMatrix type="matrix" values="0 0 0 0 0 0 0 0 0 0 0 0 0 0 0 0 0 0 0.16 0"/>
<feBlend mode="color-burn" in2="BackgroundImageFix" result="effect1_dropShadow_170_1505"/>
<feBlend mode="normal" in="SourceGraphic" in2="effect1_dropShadow_170_1505" result="shape"/>
</filter>
<filter id="filter2_i_170_1505" x="17.2059" y="16.1993" width="16.859" height="15.973" filterUnits="userSpaceOnUse" color-interpolation-filters="sRGB">
<feFlood flood-opacity="0" result="BackgroundImageFix"/>
<feBlend mode="normal" in="SourceGraphic" in2="BackgroundImageFix" result="shape"/>
<feColorMatrix in="SourceAlpha" type="matrix" values="0 0 0 0 0 0 0 0 0 0 0 0 0 0 0 0 0 0 127 0" result="hardAlpha"/>
<feOffset dy="0.958333"/>
<feGaussianBlur stdDeviation="0.479167"/>
<feComposite in2="hardAlpha" operator="arithmetic" k2="-1" k3="1"/>
<feColorMatrix type="matrix" values="0 0 0 0 0 0 0 0 0 0 0 0 0 0 0 0 0 0 0.07 0"/>
<feBlend mode="normal" in2="shape" result="effect1_innerShadow_170_1505"/>
</filter>
<linearGradient id="paint0_linear_170_1505" x1="25.6354" y1="-9.10416" x2="25.6354" y2="57.9792" gradientUnits="userSpaceOnUse">
<stop stop-color="#FFC759"/>
<stop offset="1" stop-color="#EFA006"/>
</linearGradient>
<linearGradient id="paint1_linear_170_1505" x1="25.6354" y1="-1.50255" x2="25.6354" y2="50.0298" gradientUnits="userSpaceOnUse">
<stop stop-color="white"/>
<stop offset="1" stop-color="white" stop-opacity="0"/>
</linearGradient>
<radialGradient id="paint2_radial_170_1505" cx="0" cy="0" r="1" gradientUnits="userSpaceOnUse" gradientTransform="translate(25.6354 13.2993) rotate(90) scale(33.9894 25.7884)">
<stop stop-color="white"/>
<stop offset="1" stop-color="white" stop-opacity="0"/>
</radialGradient>
<linearGradient id="paint3_linear_170_1505" x1="25.6354" y1="-9.10416" x2="25.6354" y2="57.9792" gradientUnits="userSpaceOnUse">
<stop stop-color="#FFC759"/>
<stop offset="1" stop-color="#EFA006"/>
</linearGradient>
<linearGradient id="paint4_linear_170_1505" x1="25.6354" y1="-1.50255" x2="25.6354" y2="50.0298" gradientUnits="userSpaceOnUse">
<stop stop-color="white"/>
<stop offset="1" stop-color="white" stop-opacity="0"/>
</linearGradient>
<radialGradient id="paint5_radial_170_1505" cx="0" cy="0" r="1" gradientUnits="userSpaceOnUse" gradientTransform="translate(25.6354 13.2993) rotate(90) scale(33.9894 25.7884)">
<stop stop-color="white"/>
<stop offset="1" stop-color="white" stop-opacity="0"/>
</radialGradient>
<linearGradient id="paint6_linear_170_1505" x1="-7.90625" y1="-9.10416" x2="-7.90625" y2="57.9792" gradientUnits="userSpaceOnUse">
<stop offset="0.135095" stop-color="white"/>
<stop offset="0.877908" stop-color="white" stop-opacity="0.01"/>
</linearGradient>
<radialGradient id="paint7_radial_170_1505" cx="0" cy="0" r="1" gradientUnits="userSpaceOnUse" gradientTransform="translate(25.6352 24.4373) rotate(90) scale(26.8335)">
<stop offset="0.075" stop-color="white" stop-opacity="0"/>
<stop offset="0.34" stop-color="white"/>
<stop offset="0.705" stop-color="white" stop-opacity="0.01"/>
</radialGradient>
<linearGradient id="paint8_linear_170_1505" x1="25.6354" y1="1.4375" x2="25.6354" y2="47.4375" gradientUnits="userSpaceOnUse">
<stop stop-color="white"/>
<stop offset="1" stop-color="#999999"/>
</linearGradient>
<linearGradient id="paint9_linear_170_1505" x1="22.2812" y1="16.651" x2="29.2292" y2="33.0625" gradientUnits="userSpaceOnUse">
<stop stop-color="#DFCD75"/>
<stop offset="1" stop-color="#D59415"/>
</linearGradient>
</defs>
<script xmlns="" id="vsc-settings-data">{}</script><script xmlns=""/></svg>