<svg xmlns="http://www.w3.org/2000/svg" width="63" height="15" viewBox="0 0 63 15" fill="none">
<path d="M6.84058 11.5282H5.46938V10.2597C4.97635 11.1795 4.08273 11.7185 2.94271 11.7185C1.21723 11.7185 0 10.4659 0 8.53122V3.31421H1.37121V8.35685C1.37121 9.73637 2.12607 10.4341 3.21999 10.4341C4.42179 10.4341 5.46938 9.59355 5.46938 7.38941V3.31421H6.84058V11.5282Z" fill="#383838"/>
<path d="M8.41162 3.3138H9.78283V4.58229C10.2759 3.66253 11.1695 3.12354 12.3095 3.12354C14.035 3.12354 15.2522 4.37636 15.2522 6.31077V11.5278H13.881V6.48514C13.881 5.10562 13.1261 4.40792 12.0322 4.40792C10.8304 4.40792 9.78283 5.24844 9.78283 7.45258V11.5278H8.41162V3.3138Z" fill="#383838"/>
<path d="M16.7465 0.205566H18.1177V1.60098H16.7465V0.205566ZM16.7465 3.31357H18.1177V11.5276H16.7465V3.31357Z" fill="#383838"/>
<path d="M20.2283 4.50341H18.9341V3.31416H20.2283V2.50543C20.2283 0.856179 21.1528 0 22.678 0C23.171 0 23.5871 0.0951311 23.895 0.206156L23.6793 1.49054C23.479 1.37952 23.1247 1.28438 22.7856 1.28438C22.0614 1.28438 21.5993 1.64901 21.5993 2.58466V3.31416H23.5251V4.50341H21.5993V11.5281H20.2281V4.50341H20.2283Z" fill="#383838"/>
<path d="M22.755 13.8749L23.3405 12.7808C23.6023 13.0028 23.9259 13.1298 24.265 13.1298C25.0816 13.1298 25.4204 12.4479 25.7441 11.6867L25.8674 11.4013L22.4625 3.31421H24.0031L26.5761 9.68868L28.9025 3.31421H30.3661L27.1307 11.7502C26.6222 13.0187 25.9907 14.4141 24.3883 14.4141C23.7874 14.4141 23.2174 14.2239 22.7552 13.8749H22.755Z" fill="#383838"/>
<path d="M30.1965 9.16517C30.1965 8.43567 30.4429 7.96002 30.782 7.59539C32.2456 6.05717 35.4965 7.19897 35.4965 5.53406C35.4965 4.82047 34.8649 4.39226 33.771 4.39226C32.7541 4.39226 31.8607 4.74123 31.2905 5.24844L30.628 4.13842C31.3213 3.63098 32.3844 3.12354 33.771 3.12354C35.5274 3.12354 36.8523 3.90048 36.8523 5.80333V9.32364C36.8523 10.1642 37.0834 10.4496 37.6071 10.4496C37.8074 10.4496 37.9923 10.4019 38.1002 10.3067L38.3005 11.4485C38.0541 11.6229 37.6996 11.6865 37.3759 11.6865C36.5441 11.6865 35.866 11.2742 35.6505 10.3385C35.1266 11.2742 34.0944 11.718 32.985 11.718C31.352 11.718 30.1965 10.7508 30.1965 9.16493V9.16517ZM35.4965 8.38823V7.04026C34.7723 7.99181 32.8159 7.53181 31.9529 8.24541C31.7217 8.43568 31.5677 8.70517 31.5677 9.11749C31.5677 9.98956 32.2302 10.4496 33.2471 10.4496C34.341 10.4496 35.4965 9.91032 35.4965 8.38823Z" fill="#383838"/>
<path d="M38.8241 3.3138H40.1953V4.69331C40.642 3.78945 41.6589 3.12354 42.9992 3.12354C45.1871 3.12354 46.6968 4.89947 46.6968 7.389C46.6968 9.87853 45.1099 11.718 42.9375 11.718C41.6126 11.718 40.642 11.0678 40.1951 10.1957V14.2868H38.8239V3.31356L38.8241 3.3138ZM40.1953 7.04027V7.80131C40.3186 9.33954 41.2429 10.4337 42.722 10.4337C44.355 10.4337 45.2641 9.11749 45.2641 7.389C45.2641 5.66052 44.355 4.40792 42.7374 4.40792C41.2429 4.40792 40.3186 5.51794 40.1953 7.04027Z" fill="#383838"/>
<path d="M47.7754 3.3138H49.1466V4.69331C49.5933 3.78945 50.6102 3.12354 51.9505 3.12354C54.1384 3.12354 55.6481 4.89947 55.6481 7.389C55.6481 9.87853 54.0612 11.718 51.8888 11.718C50.5639 11.718 49.5933 11.0678 49.1464 10.1957V14.2868H47.7751V3.31356L47.7754 3.3138ZM49.1466 7.04027V7.80131C49.2699 9.33954 50.1942 10.4337 51.6732 10.4337C53.3063 10.4337 54.2154 9.11749 54.2154 7.389C54.2154 5.66052 53.3063 4.40792 51.6887 4.40792C50.1942 4.40792 49.2699 5.51794 49.1466 7.04027Z" fill="#383838"/>
<path d="M56.0793 10.069L57.0654 9.24442C57.5893 9.9898 58.4829 10.4496 59.6845 10.4496C60.8861 10.4496 61.6257 10.0214 61.6257 9.24442C61.6257 8.56261 61.179 8.26132 59.5305 7.97592C57.2811 7.57951 56.4954 6.91359 56.4954 5.59742C56.4954 4.0592 57.8203 3.12378 59.5151 3.12378C60.9478 3.12378 62.0418 3.7897 62.6581 4.59843L61.6566 5.42305C61.256 4.78869 60.4857 4.37638 59.5305 4.37638C58.4984 4.37638 57.8205 4.77279 57.8205 5.4705C57.8205 6.08897 58.2365 6.34257 59.8233 6.62796C62.0726 7.02438 62.9508 7.73798 62.9508 9.07005C62.9508 10.735 61.5642 11.7183 59.6384 11.7183C57.9129 11.7183 56.7266 10.9572 56.0793 10.069Z" fill="#383838"/>
<style xmlns="" class="darkreader darkreader--fallback">html, body, body :not(iframe) {
    background-color: var(--darkreader-background-ffffff, #181a1b) !important;
    border-color: var(--darkreader-border-404040, #776e62) !important;
    color: var(--darkreader-text-000000, #e8e6e3) !important;
}
div[style*="background-color: rgb(135, 135, 135)"] {
    background-color: #878787 !important;
}</style><script xmlns="" id="vsc-settings-data">{}</script><script xmlns=""/></svg>