<svg xmlns="http://www.w3.org/2000/svg" width="23" height="24" viewBox="0 0 23 24" fill="none">
<path d="M12.1322 20.1636C11.5879 19.7871 11.0934 19.3182 10.6718 18.7823C13.7313 17.8141 15.9551 14.9478 15.9551 11.5715V5.17175C15.9551 4.79357 16.0386 4.43525 16.1846 4.11105C15.7647 3.67467 15.4618 3.12609 15.326 2.5144C14.7287 3.23688 14.3693 4.16318 14.3693 5.17175V11.5715C14.3693 14.3787 12.4238 16.7399 9.81043 17.3773C9.41479 16.522 9.18834 15.5796 9.18834 14.6124V5.17175C9.18834 2.86874 7.31506 0.994873 5.01203 0.994873C2.70899 0.994873 0.836182 2.86874 0.836182 5.17175V6.48629H2.42202V5.17175C2.42202 3.74292 3.58393 2.58054 5.01249 2.58054C6.44105 2.58054 7.60297 3.74292 7.60297 5.17175V14.6126C7.60297 15.6327 7.79904 16.6232 8.15051 17.5416C5.50675 17.4343 3.30537 15.5976 2.63585 13.1363H1.00117C1.72398 16.5566 4.76408 19.1322 8.39566 19.1322C8.58097 19.1322 8.76489 19.1254 8.94647 19.1123C9.74757 20.3567 10.8569 21.3716 12.1322 22.0102V20.1636Z" fill="#383838"/>
<path d="M21.8446 2.62028C21.6897 3.22403 21.373 3.76326 20.9402 4.18609C21.066 4.49018 21.1361 4.82279 21.1361 5.17199V14.6129C21.1361 16.5917 20.1845 18.4644 18.7807 19.6976V21.6804C21.0891 20.2527 22.7219 17.5575 22.7219 14.6129V5.17176C22.7219 4.21063 22.3924 3.32687 21.8446 2.62028Z" fill="#383838"/>
<path d="M18.5988 3.57524C19.5859 3.57524 20.3861 2.7749 20.3861 1.78762C20.3861 0.800345 19.5859 0 18.5988 0C17.6117 0 16.8115 0.800345 16.8115 1.78762C16.8115 2.7749 17.6117 3.57524 18.5988 3.57524Z" fill="#12D965"/>
<path d="M17.2436 22.3414V20.2773L15.4563 19.2451L13.6691 20.2773V22.3414L15.4563 23.3736L17.2436 22.3414Z" fill="#FC7878"/>
<path d="M3.29225 8.16479H0V11.4577H3.29225V8.16479Z" fill="#705AF8"/>
<style xmlns="" class="darkreader darkreader--fallback">html, body, body :not(iframe) {
    background-color: var(--darkreader-background-ffffff, #181a1b) !important;
    border-color: var(--darkreader-border-404040, #776e62) !important;
    color: var(--darkreader-text-000000, #e8e6e3) !important;
}
div[style*="background-color: rgb(135, 135, 135)"] {
    background-color: #878787 !important;
}</style><script xmlns="" id="vsc-settings-data">{}</script><script xmlns=""/></svg>